<?xml version="1.0" encoding="UTF-8"?>
<svg width="401px" height="350px" viewBox="0 0 401 350" version="1.1" xmlns="http://www.w3.org/2000/svg" xmlns:xlink="http://www.w3.org/1999/xlink">
    <title>dates-tba</title>
    <g id="path" stroke="none" stroke-width="1" fill="none" fill-rule="evenodd">
        <g id="A4" transform="translate(-97.000000, -212.000000)">
            <g id="dates-tba" transform="translate(97.000000, 212.000000)">
                <g id="calendar">
                    <rect id="Rectangle" fill="#FFFFFF" x="0" y="0" width="400" height="350" rx="25"></rect>
                    <path d="M25,0 L375,0 C388.807119,-2.53632657e-15 400,11.1928813 400,25 L400,60 L400,60 L0,60 L0,25 C-1.69088438e-15,11.1928813 11.1928813,6.08904025e-15 25,0 Z" id="Rectangle" fill="#FFBE52"></path>
                    <rect id="Rectangle" fill="#F4AA3E" x="0" y="60" width="400" height="30"></rect>
                </g>
                <g id="year-month" transform="translate(147.260000, 13.648000)" fill="#FFFFFF" fill-rule="nonzero">
                    <path d="M24.576,35.352 L24.576,31.032 C24.576,30.312 24.344,29.732 23.88,29.292 C23.416,28.852 22.784,28.632 21.984,28.632 L21.984,28.632 L15.456,28.632 C14.72,28.632 13.92,28.704 13.056,28.848 C12.192,28.992 11.32,29.2 10.44,29.472 L10.44,29.472 L17.28,22.464 C18.208,21.52 19.084,20.588 19.908,19.668 C20.732,18.748 21.456,17.796 22.08,16.812 C22.704,15.828 23.196,14.792 23.556,13.704 C23.916,12.616 24.096,11.432 24.096,10.152 C24.096,8.664 23.836,7.3 23.316,6.06 C22.796,4.82 22.048,3.752 21.072,2.856 C20.096,1.96 18.916,1.26 17.532,0.756 C16.148,0.252 14.592,0 12.864,0 C11.264,0 9.768,0.212 8.376,0.636 C6.984,1.06 5.748,1.704 4.668,2.568 C3.588,3.432 2.684,4.512 1.956,5.808 C1.228,7.104 0.736,8.624 0.48,10.368 L0.48,10.368 L4.416,11.064 C5.424,11.224 6.2,11.16 6.744,10.872 C7.288,10.584 7.728,10 8.064,9.12 C8.352,8.256 8.876,7.532 9.636,6.948 C10.396,6.364 11.328,6.072 12.432,6.072 C13.792,6.072 14.804,6.444 15.468,7.188 C16.132,7.932 16.464,9 16.464,10.392 C16.464,11.24 16.36,12.044 16.152,12.804 C15.944,13.564 15.632,14.324 15.216,15.084 C14.8,15.844 14.272,16.616 13.632,17.4 C12.992,18.184 12.24,19.008 11.376,19.872 L11.376,19.872 L1.296,30.024 C0.816,30.456 0.48,30.936 0.288,31.464 C0.096,31.992 0,32.488 0,32.952 L0,32.952 L0,35.352 L24.576,35.352 Z M40.272,35.736 C42.128,35.736 43.852,35.376 45.444,34.656 C47.036,33.936 48.412,32.84 49.572,31.368 C50.732,29.896 51.64,28.04 52.296,25.8 C52.952,23.56 53.28,20.912 53.28,17.856 C53.28,14.8 52.952,12.152 52.296,9.912 C51.64,7.672 50.732,5.816 49.572,4.344 C48.412,2.872 47.036,1.78 45.444,1.068 C43.852,0.356 42.128,0 40.272,0 C38.416,0 36.7,0.356 35.124,1.068 C33.548,1.78 32.184,2.872 31.032,4.344 C29.88,5.816 28.98,7.672 28.332,9.912 C27.684,12.152 27.36,14.8 27.36,17.856 C27.36,20.912 27.684,23.56 28.332,25.8 C28.98,28.04 29.88,29.896 31.032,31.368 C32.184,32.84 33.548,33.936 35.124,34.656 C36.7,35.376 38.416,35.736 40.272,35.736 Z M40.272,29.76 C39.616,29.76 38.972,29.596 38.34,29.268 C37.708,28.94 37.148,28.332 36.66,27.444 C36.172,26.556 35.78,25.344 35.484,23.808 C35.188,22.272 35.04,20.288 35.04,17.856 C35.04,15.44 35.188,13.46 35.484,11.916 C35.78,10.372 36.172,9.16 36.66,8.28 C37.148,7.4 37.708,6.796 38.34,6.468 C38.972,6.14 39.616,5.976 40.272,5.976 C40.928,5.976 41.576,6.14 42.216,6.468 C42.856,6.796 43.428,7.4 43.932,8.28 C44.436,9.16 44.84,10.372 45.144,11.916 C45.448,13.46 45.6,15.44 45.6,17.856 C45.6,20.288 45.448,22.272 45.144,23.808 C44.84,25.344 44.436,26.556 43.932,27.444 C43.428,28.332 42.856,28.94 42.216,29.268 C41.576,29.596 40.928,29.76 40.272,29.76 Z M80.256,35.352 L80.256,31.032 C80.256,30.312 80.024,29.732 79.56,29.292 C79.096,28.852 78.464,28.632 77.664,28.632 L77.664,28.632 L71.136,28.632 C70.4,28.632 69.6,28.704 68.736,28.848 C67.872,28.992 67,29.2 66.12,29.472 L66.12,29.472 L72.96,22.464 C73.888,21.52 74.764,20.588 75.588,19.668 C76.412,18.748 77.136,17.796 77.76,16.812 C78.384,15.828 78.876,14.792 79.236,13.704 C79.596,12.616 79.776,11.432 79.776,10.152 C79.776,8.664 79.516,7.3 78.996,6.06 C78.476,4.82 77.728,3.752 76.752,2.856 C75.776,1.96 74.596,1.26 73.212,0.756 C71.828,0.252 70.272,0 68.544,0 C66.944,0 65.448,0.212 64.056,0.636 C62.664,1.06 61.428,1.704 60.348,2.568 C59.268,3.432 58.364,4.512 57.636,5.808 C56.908,7.104 56.416,8.624 56.16,10.368 L56.16,10.368 L60.096,11.064 C61.104,11.224 61.88,11.16 62.424,10.872 C62.968,10.584 63.408,10 63.744,9.12 C64.032,8.256 64.556,7.532 65.316,6.948 C66.076,6.364 67.008,6.072 68.112,6.072 C69.472,6.072 70.484,6.444 71.148,7.188 C71.812,7.932 72.144,9 72.144,10.392 C72.144,11.24 72.04,12.044 71.832,12.804 C71.624,13.564 71.312,14.324 70.896,15.084 C70.48,15.844 69.952,16.616 69.312,17.4 C68.672,18.184 67.92,19.008 67.056,19.872 L67.056,19.872 L56.976,30.024 C56.496,30.456 56.16,30.936 55.968,31.464 C55.776,31.992 55.68,32.488 55.68,32.952 L55.68,32.952 L55.68,35.352 L80.256,35.352 Z M107.256,35.352 L107.256,31.032 C107.256,30.312 107.024,29.732 106.56,29.292 C106.096,28.852 105.464,28.632 104.664,28.632 L104.664,28.632 L98.136,28.632 C97.4,28.632 96.6,28.704 95.736,28.848 C94.872,28.992 94,29.2 93.12,29.472 L93.12,29.472 L99.96,22.464 C100.888,21.52 101.764,20.588 102.588,19.668 C103.412,18.748 104.136,17.796 104.76,16.812 C105.384,15.828 105.876,14.792 106.236,13.704 C106.596,12.616 106.776,11.432 106.776,10.152 C106.776,8.664 106.516,7.3 105.996,6.06 C105.476,4.82 104.728,3.752 103.752,2.856 C102.776,1.96 101.596,1.26 100.212,0.756 C98.828,0.252 97.272,0 95.544,0 C93.944,0 92.448,0.212 91.056,0.636 C89.664,1.06 88.428,1.704 87.348,2.568 C86.268,3.432 85.364,4.512 84.636,5.808 C83.908,7.104 83.416,8.624 83.16,10.368 L83.16,10.368 L87.096,11.064 C88.104,11.224 88.88,11.16 89.424,10.872 C89.968,10.584 90.408,10 90.744,9.12 C91.032,8.256 91.556,7.532 92.316,6.948 C93.076,6.364 94.008,6.072 95.112,6.072 C96.472,6.072 97.484,6.444 98.148,7.188 C98.812,7.932 99.144,9 99.144,10.392 C99.144,11.24 99.04,12.044 98.832,12.804 C98.624,13.564 98.312,14.324 97.896,15.084 C97.48,15.844 96.952,16.616 96.312,17.4 C95.672,18.184 94.92,19.008 94.056,19.872 L94.056,19.872 L83.976,30.024 C83.496,30.456 83.16,30.936 82.968,31.464 C82.776,31.992 82.68,32.488 82.68,32.952 L82.68,32.952 L82.68,35.352 L107.256,35.352 Z" id="2021"></path>
                </g>
                <g id="week" transform="translate(31.000000, 67.000000)" fill="#FFFFFF" fill-rule="nonzero">
                    <path d="M4.0925,15 L4.0925,8.715 C4.0925,8.57 4.0875,8.41125 4.0775,8.23875 C4.0675,8.06625 4.055,7.89 4.04,7.71 L4.04,7.71 L6.9425,13.3425 C7.0325,13.5175 7.15375,13.65 7.30625,13.74 C7.45875,13.83 7.6325,13.875 7.8275,13.875 L7.8275,13.875 L8.1725,13.875 C8.3675,13.875 8.54125,13.83 8.69375,13.74 C8.84625,13.65 8.9675,13.5175 9.0575,13.3425 L9.0575,13.3425 L11.96,7.725 C11.94,7.9 11.92625,8.0725 11.91875,8.2425 C11.91125,8.4125 11.9075,8.57 11.9075,8.715 L11.9075,8.715 L11.9075,15 L14.1425,15 L14.1425,4.0725 L12.2075,4.0725 C12.0975,4.0725 12.00125,4.075 11.91875,4.08 C11.83625,4.085 11.7625,4.1 11.6975,4.125 C11.6325,4.15 11.57375,4.18875 11.52125,4.24125 C11.46875,4.29375 11.4175,4.3675 11.3675,4.4625 L11.3675,4.4625 L8.5625,9.9825 C8.4575,10.1725 8.35875,10.3725 8.26625,10.5825 C8.17375,10.7925 8.085,11.0075 8,11.2275 C7.915,11.0125 7.82625,10.8025 7.73375,10.5975 C7.64125,10.3925 7.545,10.195 7.445,10.005 L7.445,10.005 L4.6325,4.4625 C4.5825,4.3675 4.53125,4.29375 4.47875,4.24125 C4.42625,4.18875 4.3675,4.15 4.3025,4.125 C4.2375,4.1 4.16375,4.085 4.08125,4.08 C3.99875,4.075 3.9025,4.0725 3.7925,4.0725 L3.7925,4.0725 L1.8575,4.0725 L1.8575,15 L4.0925,15 Z" id="M"></path>
                    <polygon id="T" points="62.2675 15 62.2675 6.0825 65.3425 6.0825 65.3425 4.0725 56.6575 4.0725 56.6575 6.0825 59.7325 6.0825 59.7325 15"></polygon>
                    <path d="M111.7125,15 L113.7975,8.2275 C113.8375,8.1225 113.875,8.00625 113.91,7.87875 C113.945,7.75125 113.98,7.6175 114.015,7.4775 C114.05,7.6175 114.085,7.75125 114.12,7.87875 C114.155,8.00625 114.1925,8.1225 114.2325,8.2275 L114.2325,8.2275 L116.2875,15 L118.5825,15 L121.9575,4.0725 L119.9625,4.0725 C119.7525,4.0725 119.5725,4.1275 119.4225,4.2375 C119.2725,4.3475 119.1775,4.475 119.1375,4.62 L119.1375,4.62 L117.6375,10.32 C117.5925,10.495 117.54875,10.68125 117.50625,10.87875 C117.46375,11.07625 117.4225,11.2875 117.3825,11.5125 C117.2925,11.0675 117.1825,10.67 117.0525,10.32 L117.0525,10.32 L115.2975,4.62 C115.2275,4.46 115.125,4.32875 114.99,4.22625 C114.855,4.12375 114.6775,4.0725 114.4575,4.0725 L114.4575,4.0725 L113.7075,4.0725 C113.4975,4.0725 113.31875,4.12875 113.17125,4.24125 C113.02375,4.35375 112.9275,4.48 112.8825,4.62 L112.8825,4.62 L111.1125,10.32 C110.9825,10.685 110.8725,11.1025 110.7825,11.5725 C110.7375,11.3425 110.6925,11.12125 110.6475,10.90875 C110.6025,10.69625 110.5575,10.5 110.5125,10.32 L110.5125,10.32 L109.0125,4.62 C108.9675,4.455 108.87125,4.3225 108.72375,4.2225 C108.57625,4.1225 108.3925,4.0725 108.1725,4.0725 L108.1725,4.0725 L106.0425,4.0725 L109.4175,15 L111.7125,15 Z" id="W"></path>
                    <polygon id="T" points="168.2675 15 168.2675 6.0825 171.3425 6.0825 171.3425 4.0725 162.6575 4.0725 162.6575 6.0825 165.7325 6.0825 165.7325 15"></polygon>
                    <path d="M272.805,15.12 C273.425,15.12 273.97875,15.02625 274.46625,14.83875 C274.95375,14.65125 275.36375,14.39375 275.69625,14.06625 C276.02875,13.73875 276.2825,13.355 276.4575,12.915 C276.6325,12.475 276.72,12.0025 276.72,11.4975 C276.72,11.0425 276.65,10.65375 276.51,10.33125 C276.37,10.00875 276.18625,9.735 275.95875,9.51 C275.73125,9.285 275.47125,9.1 275.17875,8.955 C274.88625,8.81 274.5875,8.68375 274.2825,8.57625 C273.9775,8.46875 273.67875,8.37125 273.38625,8.28375 C273.09375,8.19625 272.83375,8.1 272.60625,7.995 C272.37875,7.89 272.195,7.765 272.055,7.62 C271.915,7.475 271.845,7.2925 271.845,7.0725 C271.845,6.7275 271.96125,6.45375 272.19375,6.25125 C272.42625,6.04875 272.78,5.9475 273.255,5.9475 C273.53,5.9475 273.775,5.98375 273.99,6.05625 C274.205,6.12875 274.39625,6.21 274.56375,6.3 C274.73125,6.39 274.88125,6.47125 275.01375,6.54375 C275.14625,6.61625 275.27,6.6525 275.385,6.6525 C275.515,6.6525 275.62125,6.6225 275.70375,6.5625 C275.78625,6.5025 275.865,6.4125 275.94,6.2925 L275.94,6.2925 L276.57,5.115 C276.375,4.935 276.15375,4.77375 275.90625,4.63125 C275.65875,4.48875 275.3925,4.36625 275.1075,4.26375 C274.8225,4.16125 274.52125,4.08375 274.20375,4.03125 C273.88625,3.97875 273.56,3.9525 273.225,3.9525 C272.625,3.9525 272.0925,4.04375 271.6275,4.22625 C271.1625,4.40875 270.77,4.6525 270.45,4.9575 C270.13,5.2625 269.8875,5.61 269.7225,6 C269.5575,6.39 269.475,6.79 269.475,7.2 C269.475,7.71 269.545,8.13875 269.685,8.48625 C269.825,8.83375 270.00875,9.12375 270.23625,9.35625 C270.46375,9.58875 270.7225,9.77625 271.0125,9.91875 C271.3025,10.06125 271.6,10.18125 271.905,10.27875 C272.21,10.37625 272.5075,10.465 272.7975,10.545 C273.0875,10.625 273.34625,10.7175 273.57375,10.8225 C273.80125,10.9275 273.985,11.06 274.125,11.22 C274.265,11.38 274.335,11.5875 274.335,11.8425 C274.335,12.2825 274.2075,12.60375 273.9525,12.80625 C273.6975,13.00875 273.34,13.11 272.88,13.11 C272.54,13.11 272.245,13.0625 271.995,12.9675 C271.745,12.8725 271.52375,12.7675 271.33125,12.6525 C271.13875,12.5375 270.96625,12.4325 270.81375,12.3375 C270.66125,12.2425 270.51,12.195 270.36,12.195 C270.245,12.195 270.13875,12.22375 270.04125,12.28125 C269.94375,12.33875 269.865,12.41 269.805,12.495 L269.805,12.495 L269.055,13.68 C269.27,13.895 269.5225,14.09 269.8125,14.265 C270.1025,14.44 270.4125,14.59125 270.7425,14.71875 C271.0725,14.84625 271.41375,14.945 271.76625,15.015 C272.11875,15.085 272.465,15.12 272.805,15.12 Z" id="S"></path>
                    <polygon id="F" points="219.35875 15 219.35875 10.7475 223.09375 10.7475 223.09375 8.79 219.35875 8.79 219.35875 6.0225 223.84375 6.0225 223.84375 4.0725 216.80875 4.0725 216.80875 15"></polygon>
                    <path d="M325.805,15.12 C326.425,15.12 326.97875,15.02625 327.46625,14.83875 C327.95375,14.65125 328.36375,14.39375 328.69625,14.06625 C329.02875,13.73875 329.2825,13.355 329.4575,12.915 C329.6325,12.475 329.72,12.0025 329.72,11.4975 C329.72,11.0425 329.65,10.65375 329.51,10.33125 C329.37,10.00875 329.18625,9.735 328.95875,9.51 C328.73125,9.285 328.47125,9.1 328.17875,8.955 C327.88625,8.81 327.5875,8.68375 327.2825,8.57625 C326.9775,8.46875 326.67875,8.37125 326.38625,8.28375 C326.09375,8.19625 325.83375,8.1 325.60625,7.995 C325.37875,7.89 325.195,7.765 325.055,7.62 C324.915,7.475 324.845,7.2925 324.845,7.0725 C324.845,6.7275 324.96125,6.45375 325.19375,6.25125 C325.42625,6.04875 325.78,5.9475 326.255,5.9475 C326.53,5.9475 326.775,5.98375 326.99,6.05625 C327.205,6.12875 327.39625,6.21 327.56375,6.3 C327.73125,6.39 327.88125,6.47125 328.01375,6.54375 C328.14625,6.61625 328.27,6.6525 328.385,6.6525 C328.515,6.6525 328.62125,6.6225 328.70375,6.5625 C328.78625,6.5025 328.865,6.4125 328.94,6.2925 L328.94,6.2925 L329.57,5.115 C329.375,4.935 329.15375,4.77375 328.90625,4.63125 C328.65875,4.48875 328.3925,4.36625 328.1075,4.26375 C327.8225,4.16125 327.52125,4.08375 327.20375,4.03125 C326.88625,3.97875 326.56,3.9525 326.225,3.9525 C325.625,3.9525 325.0925,4.04375 324.6275,4.22625 C324.1625,4.40875 323.77,4.6525 323.45,4.9575 C323.13,5.2625 322.8875,5.61 322.7225,6 C322.5575,6.39 322.475,6.79 322.475,7.2 C322.475,7.71 322.545,8.13875 322.685,8.48625 C322.825,8.83375 323.00875,9.12375 323.23625,9.35625 C323.46375,9.58875 323.7225,9.77625 324.0125,9.91875 C324.3025,10.06125 324.6,10.18125 324.905,10.27875 C325.21,10.37625 325.5075,10.465 325.7975,10.545 C326.0875,10.625 326.34625,10.7175 326.57375,10.8225 C326.80125,10.9275 326.985,11.06 327.125,11.22 C327.265,11.38 327.335,11.5875 327.335,11.8425 C327.335,12.2825 327.2075,12.60375 326.9525,12.80625 C326.6975,13.00875 326.34,13.11 325.88,13.11 C325.54,13.11 325.245,13.0625 324.995,12.9675 C324.745,12.8725 324.52375,12.7675 324.33125,12.6525 C324.13875,12.5375 323.96625,12.4325 323.81375,12.3375 C323.66125,12.2425 323.51,12.195 323.36,12.195 C323.245,12.195 323.13875,12.22375 323.04125,12.28125 C322.94375,12.33875 322.865,12.41 322.805,12.495 L322.805,12.495 L322.055,13.68 C322.27,13.895 322.5225,14.09 322.8125,14.265 C323.1025,14.44 323.4125,14.59125 323.7425,14.71875 C324.0725,14.84625 324.41375,14.945 324.76625,15.015 C325.11875,15.085 325.465,15.12 325.805,15.12 Z" id="S"></path>
                </g>
                <rect id="Rectangle" stroke="#6D7278" stroke-width="3" x="2.5" y="1.5" width="397" height="347" rx="25"></rect>
                <circle id="Oval" stroke="#979797" fill="#D8D8D8" cx="40" cy="137" r="8.5"></circle>
                <circle id="Oval-Copy-7" stroke="#979797" fill="#D8D8D8" cx="40" cy="173" r="8.5"></circle>
                <circle id="Oval-Copy" stroke="#979797" fill="#D8D8D8" cx="93" cy="137" r="8.5"></circle>
                <circle id="Oval-Copy-8" stroke="#979797" fill="#D8D8D8" cx="93" cy="173" r="8.5"></circle>
                <circle id="Oval-Copy-2" stroke="#979797" fill="#D8D8D8" cx="146" cy="137" r="8.5"></circle>
                <circle id="Oval-Copy-9" stroke="#979797" fill="#D8D8D8" cx="146" cy="173" r="8.5"></circle>
                <circle id="Oval-Copy-3" stroke="#979797" fill="#D8D8D8" cx="199" cy="137" r="8.5"></circle>
                <circle id="Oval-Copy-10" stroke="#979797" fill="#D8D8D8" cx="199" cy="173" r="8.5"></circle>
                <circle id="Oval-Copy-4" stroke="#979797" fill="#D8D8D8" cx="252" cy="137" r="8.5"></circle>
                <circle id="Oval-Copy-11" stroke="#979797" fill="#D8D8D8" cx="252" cy="173" r="8.5"></circle>
                <circle id="Oval-Copy-5" stroke="#979797" fill="#D8D8D8" cx="305" cy="137" r="8.5"></circle>
                <circle id="Oval-Copy-12" stroke="#979797" fill="#D8D8D8" cx="305" cy="173" r="8.5"></circle>
                <circle id="Oval-Copy-6" stroke="#979797" fill="#D8D8D8" cx="358" cy="137" r="8.5"></circle>
                <circle id="Oval-Copy-13" stroke="#979797" fill="#D8D8D8" cx="358" cy="173" r="8.5"></circle>
                <circle id="Oval-Copy-20" stroke="#979797" fill="#D8D8D8" cx="40" cy="209" r="8.5"></circle>
                <circle id="Oval-Copy-19" stroke="#979797" fill="#D8D8D8" cx="93" cy="209" r="8.5"></circle>
                <circle id="Oval-Copy-18" stroke="#979797" fill="#D8D8D8" cx="146" cy="209" r="8.5"></circle>
                <circle id="Oval-Copy-17" stroke="#979797" fill="#D8D8D8" cx="199" cy="209" r="8.5"></circle>
                <circle id="Oval-Copy-16" stroke="#979797" fill="#D8D8D8" cx="252" cy="209" r="8.5"></circle>
                <circle id="Oval-Copy-15" stroke="#979797" fill="#D8D8D8" cx="305" cy="209" r="8.5"></circle>
                <circle id="Oval-Copy-14" stroke="#979797" fill="#D8D8D8" cx="358" cy="209" r="8.5"></circle>
                <circle id="Oval-Copy-27" stroke="#979797" fill="#D8D8D8" cx="40" cy="245" r="8.5"></circle>
                <circle id="Oval-Copy-26" stroke="#979797" fill="#D8D8D8" cx="93" cy="245" r="8.5"></circle>
                <circle id="Oval-Copy-25" stroke="#979797" fill="#D8D8D8" cx="146" cy="245" r="8.5"></circle>
                <circle id="Oval-Copy-24" stroke="#979797" fill="#D8D8D8" cx="199" cy="245" r="8.5"></circle>
                <circle id="Oval-Copy-23" stroke="#979797" fill="#D8D8D8" cx="252" cy="245" r="8.5"></circle>
                <circle id="Oval-Copy-22" stroke="#979797" fill="#D8D8D8" cx="305" cy="245" r="8.5"></circle>
                <circle id="Oval-Copy-21" stroke="#979797" fill="#D8D8D8" cx="358" cy="245" r="8.5"></circle>
                <circle id="Oval-Copy-34" stroke="#979797" fill="#D8D8D8" cx="40" cy="281" r="8.5"></circle>
                <circle id="Oval-Copy-33" stroke="#979797" fill="#D8D8D8" cx="93" cy="281" r="8.5"></circle>
                <circle id="Oval-Copy-32" stroke="#979797" fill="#D8D8D8" cx="146" cy="281" r="8.5"></circle>
                <circle id="Oval-Copy-31" stroke="#979797" fill="#D8D8D8" cx="199" cy="281" r="8.5"></circle>
                <circle id="Oval-Copy-30" stroke="#979797" fill="#D8D8D8" cx="252" cy="281" r="8.5"></circle>
                <circle id="Oval-Copy-29" stroke="#979797" fill="#D8D8D8" cx="305" cy="281" r="8.5"></circle>
                <circle id="Oval-Copy-28" stroke="#979797" fill="#D8D8D8" cx="358" cy="281" r="8.5"></circle>
            </g>
        </g>
    </g>
</svg>