<?xml version="1.0" encoding="UTF-8"?>
<svg width="400px" height="350px" viewBox="0 0 400 350" version="1.1" xmlns="http://www.w3.org/2000/svg" xmlns:xlink="http://www.w3.org/1999/xlink">
    <title>dates</title>
    <g id="path" stroke="none" stroke-width="1" fill="none" fill-rule="evenodd">
        <g id="A4" transform="translate(-97.000000, -212.000000)">
            <g id="dates" transform="translate(97.000000, 212.000000)">
                <g id="calendar">
                    <rect id="Rectangle" fill="#FFFFFF" x="0" y="0" width="400" height="350" rx="25"></rect>
                    <path d="M25,0 L375,0 C388.807119,-2.53632657e-15 400,11.1928813 400,25 L400,60 L400,60 L0,60 L0,25 C-1.69088438e-15,11.1928813 11.1928813,9.64175392e-15 25,0 Z" id="Rectangle" fill="#FFBE52"></path>
                    <rect id="Rectangle" fill="#F4AA3E" x="0" y="60" width="400" height="30"></rect>
                </g>
                <g id="year-month" transform="translate(39.500000, 0.000000)" fill="#FFFFFF" fill-rule="nonzero">
                    <path d="M207.82,47.384 C209.708,47.384 211.364,47.088 212.788,46.496 C214.212,45.904 215.4,45.056 216.352,43.952 C217.304,42.848 218.02,41.512 218.5,39.944 C218.98,38.376 219.22,36.616 219.22,34.664 L219.22,34.664 L219.22,12.296 L212.764,12.296 L212.764,34.808 C212.764,36.12 212.644,37.236 212.404,38.156 C212.164,39.076 211.808,39.824 211.336,40.4 C210.864,40.976 210.276,41.396 209.572,41.66 C208.868,41.924 208.06,42.056 207.148,42.056 C206.476,42.056 205.92,42 205.48,41.888 C205.04,41.776 204.684,41.72 204.412,41.72 C203.98,41.72 203.648,41.828 203.416,42.044 C203.184,42.26 203.044,42.544 202.996,42.896 C202.948,43.536 202.892,44.176 202.828,44.816 L202.738,45.776 L202.738,45.776 L202.66,46.736 C203.572,46.96 204.444,47.124 205.276,47.228 C206.108,47.332 206.956,47.384 207.82,47.384 Z M240.58,47.384 C242.804,47.384 244.804,47.028 246.58,46.316 C248.356,45.604 249.864,44.612 251.104,43.34 C252.344,42.068 253.296,40.556 253.96,38.804 C254.624,37.052 254.956,35.144 254.956,33.08 L254.956,33.08 L254.956,12.296 L248.5,12.296 L248.5,33.08 C248.5,34.408 248.32,35.608 247.96,36.68 C247.6,37.752 247.084,38.664 246.412,39.416 C245.74,40.168 244.912,40.752 243.928,41.168 C242.944,41.584 241.828,41.792 240.58,41.792 C239.332,41.792 238.216,41.584 237.232,41.168 C236.248,40.752 235.416,40.164 234.736,39.404 C234.056,38.644 233.536,37.728 233.176,36.656 C232.816,35.584 232.636,34.384 232.636,33.056 L232.636,33.056 L232.636,12.296 L226.18,12.296 L226.18,33.08 C226.18,35.144 226.512,37.052 227.176,38.804 C227.84,40.556 228.792,42.068 230.032,43.34 C231.272,44.612 232.78,45.604 234.556,46.316 C236.332,47.028 238.34,47.384 240.58,47.384 Z M282.58,47 L282.58,41.672 L268.708,41.672 L268.708,12.296 L262.252,12.296 L262.252,47 L282.58,47 Z M297.532,47 L297.532,33.56 L310.18,12.296 L304.468,12.296 C303.924,12.296 303.476,12.448 303.124,12.752 C302.772,13.056 302.508,13.384 302.332,13.736 L302.332,13.736 L296.02,25.328 C295.668,26.016 295.356,26.664 295.084,27.272 C294.812,27.88 294.572,28.488 294.364,29.096 C294.14,28.488 293.888,27.88 293.608,27.272 C293.328,26.664 293.004,26.016 292.636,25.328 L292.636,25.328 L286.3,13.736 C286.076,13.32 285.8,12.976 285.472,12.704 C285.144,12.432 284.7,12.296 284.14,12.296 L284.14,12.296 L278.452,12.296 L291.1,33.56 L291.1,47 L297.532,47 Z" id="JULY"></path>
                    <path d="M26.336,47 L26.336,42.68 C26.336,41.96 26.104,41.38 25.64,40.94 C25.176,40.5 24.544,40.28 23.744,40.28 L23.744,40.28 L17.216,40.28 C16.48,40.28 15.68,40.352 14.816,40.496 C13.952,40.64 13.08,40.848 12.2,41.12 L12.2,41.12 L19.04,34.112 C19.968,33.168 20.844,32.236 21.668,31.316 C22.492,30.396 23.216,29.444 23.84,28.46 C24.464,27.476 24.956,26.44 25.316,25.352 C25.676,24.264 25.856,23.08 25.856,21.8 C25.856,20.312 25.596,18.948 25.076,17.708 C24.556,16.468 23.808,15.4 22.832,14.504 C21.856,13.608 20.676,12.908 19.292,12.404 C17.908,11.9 16.352,11.648 14.624,11.648 C13.024,11.648 11.528,11.86 10.136,12.284 C8.744,12.708 7.508,13.352 6.428,14.216 C5.348,15.08 4.444,16.16 3.716,17.456 C2.988,18.752 2.496,20.272 2.24,22.016 L2.24,22.016 L6.176,22.712 C7.184,22.872 7.96,22.808 8.504,22.52 C9.048,22.232 9.488,21.648 9.824,20.768 C10.112,19.904 10.636,19.18 11.396,18.596 C12.156,18.012 13.088,17.72 14.192,17.72 C15.552,17.72 16.564,18.092 17.228,18.836 C17.892,19.58 18.224,20.648 18.224,22.04 C18.224,22.888 18.12,23.692 17.912,24.452 C17.704,25.212 17.392,25.972 16.976,26.732 C16.56,27.492 16.032,28.264 15.392,29.048 C14.752,29.832 14,30.656 13.136,31.52 L13.136,31.52 L3.056,41.672 C2.576,42.104 2.24,42.584 2.048,43.112 C1.856,43.64 1.76,44.136 1.76,44.6 L1.76,44.6 L1.76,47 L26.336,47 Z M42.032,47.384 C43.888,47.384 45.612,47.024 47.204,46.304 C48.796,45.584 50.172,44.488 51.332,43.016 C52.492,41.544 53.4,39.688 54.056,37.448 C54.712,35.208 55.04,32.56 55.04,29.504 C55.04,26.448 54.712,23.8 54.056,21.56 C53.4,19.32 52.492,17.464 51.332,15.992 C50.172,14.52 48.796,13.428 47.204,12.716 C45.612,12.004 43.888,11.648 42.032,11.648 C40.176,11.648 38.46,12.004 36.884,12.716 C35.308,13.428 33.944,14.52 32.792,15.992 C31.64,17.464 30.74,19.32 30.092,21.56 C29.444,23.8 29.12,26.448 29.12,29.504 C29.12,32.56 29.444,35.208 30.092,37.448 C30.74,39.688 31.64,41.544 32.792,43.016 C33.944,44.488 35.308,45.584 36.884,46.304 C38.46,47.024 40.176,47.384 42.032,47.384 Z M42.032,41.408 C41.376,41.408 40.732,41.244 40.1,40.916 C39.468,40.588 38.908,39.98 38.42,39.092 C37.932,38.204 37.54,36.992 37.244,35.456 C36.948,33.92 36.8,31.936 36.8,29.504 C36.8,27.088 36.948,25.108 37.244,23.564 C37.54,22.02 37.932,20.808 38.42,19.928 C38.908,19.048 39.468,18.444 40.1,18.116 C40.732,17.788 41.376,17.624 42.032,17.624 C42.688,17.624 43.336,17.788 43.976,18.116 C44.616,18.444 45.188,19.048 45.692,19.928 C46.196,20.808 46.6,22.02 46.904,23.564 C47.208,25.108 47.36,27.088 47.36,29.504 C47.36,31.936 47.208,33.92 46.904,35.456 C46.6,36.992 46.196,38.204 45.692,39.092 C45.188,39.98 44.616,40.588 43.976,40.916 C43.336,41.244 42.688,41.408 42.032,41.408 Z M82.016,47 L82.016,42.68 C82.016,41.96 81.784,41.38 81.32,40.94 C80.856,40.5 80.224,40.28 79.424,40.28 L79.424,40.28 L72.896,40.28 C72.16,40.28 71.36,40.352 70.496,40.496 C69.632,40.64 68.76,40.848 67.88,41.12 L67.88,41.12 L74.72,34.112 C75.648,33.168 76.524,32.236 77.348,31.316 C78.172,30.396 78.896,29.444 79.52,28.46 C80.144,27.476 80.636,26.44 80.996,25.352 C81.356,24.264 81.536,23.08 81.536,21.8 C81.536,20.312 81.276,18.948 80.756,17.708 C80.236,16.468 79.488,15.4 78.512,14.504 C77.536,13.608 76.356,12.908 74.972,12.404 C73.588,11.9 72.032,11.648 70.304,11.648 C68.704,11.648 67.208,11.86 65.816,12.284 C64.424,12.708 63.188,13.352 62.108,14.216 C61.028,15.08 60.124,16.16 59.396,17.456 C58.668,18.752 58.176,20.272 57.92,22.016 L57.92,22.016 L61.856,22.712 C62.864,22.872 63.64,22.808 64.184,22.52 C64.728,22.232 65.168,21.648 65.504,20.768 C65.792,19.904 66.316,19.18 67.076,18.596 C67.836,18.012 68.768,17.72 69.872,17.72 C71.232,17.72 72.244,18.092 72.908,18.836 C73.572,19.58 73.904,20.648 73.904,22.04 C73.904,22.888 73.8,23.692 73.592,24.452 C73.384,25.212 73.072,25.972 72.656,26.732 C72.24,27.492 71.712,28.264 71.072,29.048 C70.432,29.832 69.68,30.656 68.816,31.52 L68.816,31.52 L58.736,41.672 C58.256,42.104 57.92,42.584 57.728,43.112 C57.536,43.64 57.44,44.136 57.44,44.6 L57.44,44.6 L57.44,47 L82.016,47 Z M109.064,47 L109.064,41.624 L103.304,41.624 L103.304,12.008 L97.16,12.008 L86.264,21.152 L88.616,24.272 C88.728,24.432 88.904,24.588 89.144,24.74 C89.384,24.892 89.656,24.996 89.96,25.052 C90.264,25.108 90.588,25.108 90.932,25.052 C91.276,24.996 91.624,24.832 91.976,24.56 L91.976,24.56 L95.96,21.248 C95.928,21.712 95.904,22.172 95.888,22.628 C95.872,23.084 95.864,23.536 95.864,23.984 L95.864,23.984 L95.864,41.624 L89.144,41.624 L89.144,47 L109.064,47 Z" id="2021"></path>
                </g>
                <g id="week" transform="translate(31.000000, 67.000000)" fill="#FFFFFF" fill-rule="nonzero">
                    <path d="M4.0925,15 L4.0925,8.715 C4.0925,8.57 4.0875,8.41125 4.0775,8.23875 C4.0675,8.06625 4.055,7.89 4.04,7.71 L4.04,7.71 L6.9425,13.3425 C7.0325,13.5175 7.15375,13.65 7.30625,13.74 C7.45875,13.83 7.6325,13.875 7.8275,13.875 L7.8275,13.875 L8.1725,13.875 C8.3675,13.875 8.54125,13.83 8.69375,13.74 C8.84625,13.65 8.9675,13.5175 9.0575,13.3425 L9.0575,13.3425 L11.96,7.725 C11.94,7.9 11.92625,8.0725 11.91875,8.2425 C11.91125,8.4125 11.9075,8.57 11.9075,8.715 L11.9075,8.715 L11.9075,15 L14.1425,15 L14.1425,4.0725 L12.2075,4.0725 C12.0975,4.0725 12.00125,4.075 11.91875,4.08 C11.83625,4.085 11.7625,4.1 11.6975,4.125 C11.6325,4.15 11.57375,4.18875 11.52125,4.24125 C11.46875,4.29375 11.4175,4.3675 11.3675,4.4625 L11.3675,4.4625 L8.5625,9.9825 C8.4575,10.1725 8.35875,10.3725 8.26625,10.5825 C8.17375,10.7925 8.085,11.0075 8,11.2275 C7.915,11.0125 7.82625,10.8025 7.73375,10.5975 C7.64125,10.3925 7.545,10.195 7.445,10.005 L7.445,10.005 L4.6325,4.4625 C4.5825,4.3675 4.53125,4.29375 4.47875,4.24125 C4.42625,4.18875 4.3675,4.15 4.3025,4.125 C4.2375,4.1 4.16375,4.085 4.08125,4.08 C3.99875,4.075 3.9025,4.0725 3.7925,4.0725 L3.7925,4.0725 L1.8575,4.0725 L1.8575,15 L4.0925,15 Z" id="M"></path>
                    <polygon id="T" points="62.2675 15 62.2675 6.0825 65.3425 6.0825 65.3425 4.0725 56.6575 4.0725 56.6575 6.0825 59.7325 6.0825 59.7325 15"></polygon>
                    <path d="M111.7125,15 L113.7975,8.2275 C113.8375,8.1225 113.875,8.00625 113.91,7.87875 C113.945,7.75125 113.98,7.6175 114.015,7.4775 C114.05,7.6175 114.085,7.75125 114.12,7.87875 C114.155,8.00625 114.1925,8.1225 114.2325,8.2275 L114.2325,8.2275 L116.2875,15 L118.5825,15 L121.9575,4.0725 L119.9625,4.0725 C119.7525,4.0725 119.5725,4.1275 119.4225,4.2375 C119.2725,4.3475 119.1775,4.475 119.1375,4.62 L119.1375,4.62 L117.6375,10.32 C117.5925,10.495 117.54875,10.68125 117.50625,10.87875 C117.46375,11.07625 117.4225,11.2875 117.3825,11.5125 C117.2925,11.0675 117.1825,10.67 117.0525,10.32 L117.0525,10.32 L115.2975,4.62 C115.2275,4.46 115.125,4.32875 114.99,4.22625 C114.855,4.12375 114.6775,4.0725 114.4575,4.0725 L114.4575,4.0725 L113.7075,4.0725 C113.4975,4.0725 113.31875,4.12875 113.17125,4.24125 C113.02375,4.35375 112.9275,4.48 112.8825,4.62 L112.8825,4.62 L111.1125,10.32 C110.9825,10.685 110.8725,11.1025 110.7825,11.5725 C110.7375,11.3425 110.6925,11.12125 110.6475,10.90875 C110.6025,10.69625 110.5575,10.5 110.5125,10.32 L110.5125,10.32 L109.0125,4.62 C108.9675,4.455 108.87125,4.3225 108.72375,4.2225 C108.57625,4.1225 108.3925,4.0725 108.1725,4.0725 L108.1725,4.0725 L106.0425,4.0725 L109.4175,15 L111.7125,15 Z" id="W"></path>
                    <polygon id="T" points="168.2675 15 168.2675 6.0825 171.3425 6.0825 171.3425 4.0725 162.6575 4.0725 162.6575 6.0825 165.7325 6.0825 165.7325 15"></polygon>
                    <path d="M272.805,15.12 C273.425,15.12 273.97875,15.02625 274.46625,14.83875 C274.95375,14.65125 275.36375,14.39375 275.69625,14.06625 C276.02875,13.73875 276.2825,13.355 276.4575,12.915 C276.6325,12.475 276.72,12.0025 276.72,11.4975 C276.72,11.0425 276.65,10.65375 276.51,10.33125 C276.37,10.00875 276.18625,9.735 275.95875,9.51 C275.73125,9.285 275.47125,9.1 275.17875,8.955 C274.88625,8.81 274.5875,8.68375 274.2825,8.57625 C273.9775,8.46875 273.67875,8.37125 273.38625,8.28375 C273.09375,8.19625 272.83375,8.1 272.60625,7.995 C272.37875,7.89 272.195,7.765 272.055,7.62 C271.915,7.475 271.845,7.2925 271.845,7.0725 C271.845,6.7275 271.96125,6.45375 272.19375,6.25125 C272.42625,6.04875 272.78,5.9475 273.255,5.9475 C273.53,5.9475 273.775,5.98375 273.99,6.05625 C274.205,6.12875 274.39625,6.21 274.56375,6.3 C274.73125,6.39 274.88125,6.47125 275.01375,6.54375 C275.14625,6.61625 275.27,6.6525 275.385,6.6525 C275.515,6.6525 275.62125,6.6225 275.70375,6.5625 C275.78625,6.5025 275.865,6.4125 275.94,6.2925 L275.94,6.2925 L276.57,5.115 C276.375,4.935 276.15375,4.77375 275.90625,4.63125 C275.65875,4.48875 275.3925,4.36625 275.1075,4.26375 C274.8225,4.16125 274.52125,4.08375 274.20375,4.03125 C273.88625,3.97875 273.56,3.9525 273.225,3.9525 C272.625,3.9525 272.0925,4.04375 271.6275,4.22625 C271.1625,4.40875 270.77,4.6525 270.45,4.9575 C270.13,5.2625 269.8875,5.61 269.7225,6 C269.5575,6.39 269.475,6.79 269.475,7.2 C269.475,7.71 269.545,8.13875 269.685,8.48625 C269.825,8.83375 270.00875,9.12375 270.23625,9.35625 C270.46375,9.58875 270.7225,9.77625 271.0125,9.91875 C271.3025,10.06125 271.6,10.18125 271.905,10.27875 C272.21,10.37625 272.5075,10.465 272.7975,10.545 C273.0875,10.625 273.34625,10.7175 273.57375,10.8225 C273.80125,10.9275 273.985,11.06 274.125,11.22 C274.265,11.38 274.335,11.5875 274.335,11.8425 C274.335,12.2825 274.2075,12.60375 273.9525,12.80625 C273.6975,13.00875 273.34,13.11 272.88,13.11 C272.54,13.11 272.245,13.0625 271.995,12.9675 C271.745,12.8725 271.52375,12.7675 271.33125,12.6525 C271.13875,12.5375 270.96625,12.4325 270.81375,12.3375 C270.66125,12.2425 270.51,12.195 270.36,12.195 C270.245,12.195 270.13875,12.22375 270.04125,12.28125 C269.94375,12.33875 269.865,12.41 269.805,12.495 L269.805,12.495 L269.055,13.68 C269.27,13.895 269.5225,14.09 269.8125,14.265 C270.1025,14.44 270.4125,14.59125 270.7425,14.71875 C271.0725,14.84625 271.41375,14.945 271.76625,15.015 C272.11875,15.085 272.465,15.12 272.805,15.12 Z" id="S"></path>
                    <polygon id="F" points="219.35875 15 219.35875 10.7475 223.09375 10.7475 223.09375 8.79 219.35875 8.79 219.35875 6.0225 223.84375 6.0225 223.84375 4.0725 216.80875 4.0725 216.80875 15"></polygon>
                    <path d="M325.805,15.12 C326.425,15.12 326.97875,15.02625 327.46625,14.83875 C327.95375,14.65125 328.36375,14.39375 328.69625,14.06625 C329.02875,13.73875 329.2825,13.355 329.4575,12.915 C329.6325,12.475 329.72,12.0025 329.72,11.4975 C329.72,11.0425 329.65,10.65375 329.51,10.33125 C329.37,10.00875 329.18625,9.735 328.95875,9.51 C328.73125,9.285 328.47125,9.1 328.17875,8.955 C327.88625,8.81 327.5875,8.68375 327.2825,8.57625 C326.9775,8.46875 326.67875,8.37125 326.38625,8.28375 C326.09375,8.19625 325.83375,8.1 325.60625,7.995 C325.37875,7.89 325.195,7.765 325.055,7.62 C324.915,7.475 324.845,7.2925 324.845,7.0725 C324.845,6.7275 324.96125,6.45375 325.19375,6.25125 C325.42625,6.04875 325.78,5.9475 326.255,5.9475 C326.53,5.9475 326.775,5.98375 326.99,6.05625 C327.205,6.12875 327.39625,6.21 327.56375,6.3 C327.73125,6.39 327.88125,6.47125 328.01375,6.54375 C328.14625,6.61625 328.27,6.6525 328.385,6.6525 C328.515,6.6525 328.62125,6.6225 328.70375,6.5625 C328.78625,6.5025 328.865,6.4125 328.94,6.2925 L328.94,6.2925 L329.57,5.115 C329.375,4.935 329.15375,4.77375 328.90625,4.63125 C328.65875,4.48875 328.3925,4.36625 328.1075,4.26375 C327.8225,4.16125 327.52125,4.08375 327.20375,4.03125 C326.88625,3.97875 326.56,3.9525 326.225,3.9525 C325.625,3.9525 325.0925,4.04375 324.6275,4.22625 C324.1625,4.40875 323.77,4.6525 323.45,4.9575 C323.13,5.2625 322.8875,5.61 322.7225,6 C322.5575,6.39 322.475,6.79 322.475,7.2 C322.475,7.71 322.545,8.13875 322.685,8.48625 C322.825,8.83375 323.00875,9.12375 323.23625,9.35625 C323.46375,9.58875 323.7225,9.77625 324.0125,9.91875 C324.3025,10.06125 324.6,10.18125 324.905,10.27875 C325.21,10.37625 325.5075,10.465 325.7975,10.545 C326.0875,10.625 326.34625,10.7175 326.57375,10.8225 C326.80125,10.9275 326.985,11.06 327.125,11.22 C327.265,11.38 327.335,11.5875 327.335,11.8425 C327.335,12.2825 327.2075,12.60375 326.9525,12.80625 C326.6975,13.00875 326.34,13.11 325.88,13.11 C325.54,13.11 325.245,13.0625 324.995,12.9675 C324.745,12.8725 324.52375,12.7675 324.33125,12.6525 C324.13875,12.5375 323.96625,12.4325 323.81375,12.3375 C323.66125,12.2425 323.51,12.195 323.36,12.195 C323.245,12.195 323.13875,12.22375 323.04125,12.28125 C322.94375,12.33875 322.865,12.41 322.805,12.495 L322.805,12.495 L322.055,13.68 C322.27,13.895 322.5225,14.09 322.8125,14.265 C323.1025,14.44 323.4125,14.59125 323.7425,14.71875 C324.0725,14.84625 324.41375,14.945 324.76625,15.015 C325.11875,15.085 325.465,15.12 325.805,15.12 Z" id="S"></path>
                </g>
                <g id="workshop" transform="translate(24.000000, 153.000000)" fill="#F4AA3E">
                    <rect id="Rectangle" x="0" y="0" width="35" height="35"></rect>
                    <rect id="Rectangle" x="53" y="0" width="35" height="35"></rect>
                    <rect id="Rectangle" x="1" y="45" width="35" height="35"></rect>
                </g>
                <g id="days" transform="translate(25.500000, 110.000000)" fill-rule="nonzero">
                    <path d="M13.588,24 L13.588,21.84 C13.588,21.48 13.472,21.19 13.24,20.97 C13.008,20.75 12.692,20.64 12.292,20.64 L12.292,20.64 L9.028,20.64 C8.66,20.64 8.26,20.676 7.828,20.748 C7.396,20.82 6.96,20.924 6.52,21.06 L6.52,21.06 L9.94,17.556 C10.404,17.084 10.842,16.618 11.254,16.158 C11.666,15.698 12.028,15.222 12.34,14.73 C12.652,14.238 12.898,13.72 13.078,13.176 C13.258,12.632 13.348,12.04 13.348,11.4 C13.348,10.656 13.218,9.974 12.958,9.354 C12.698,8.734 12.324,8.2 11.836,7.752 C11.348,7.304 10.758,6.954 10.066,6.702 C9.374,6.45 8.596,6.324 7.732,6.324 C6.932,6.324 6.184,6.43 5.488,6.642 C4.792,6.854 4.174,7.176 3.634,7.608 C3.094,8.04 2.642,8.58 2.278,9.228 C1.914,9.876 1.668,10.636 1.54,11.508 L1.54,11.508 L3.508,11.856 C4.012,11.936 4.4,11.904 4.672,11.76 C4.944,11.616 5.164,11.324 5.332,10.884 C5.476,10.452 5.738,10.09 6.118,9.798 C6.498,9.506 6.964,9.36 7.516,9.36 C8.196,9.36 8.702,9.546 9.034,9.918 C9.366,10.29 9.532,10.824 9.532,11.52 C9.532,11.944 9.48,12.346 9.376,12.726 C9.272,13.106 9.116,13.486 8.908,13.866 C8.7,14.246 8.436,14.632 8.116,15.024 C7.796,15.416 7.42,15.828 6.988,16.26 L6.988,16.26 L1.948,21.336 C1.708,21.552 1.54,21.792 1.444,22.056 C1.348,22.32 1.3,22.568 1.3,22.8 L1.3,22.8 L1.3,24 L13.588,24 Z M21.46,24.192 C22.388,24.192 23.236,24.068 24.004,23.82 C24.772,23.572 25.43,23.222 25.978,22.77 C26.526,22.318 26.95,21.772 27.25,21.132 C27.55,20.492 27.7,19.78 27.7,18.996 C27.7,18.524 27.644,18.078 27.532,17.658 C27.42,17.238 27.246,16.852 27.01,16.5 C26.774,16.148 26.47,15.836 26.098,15.564 C25.726,15.292 25.28,15.064 24.76,14.88 C25.552,14.52 26.144,14.022 26.536,13.386 C26.928,12.75 27.124,11.984 27.124,11.088 C27.124,10.408 26.984,9.778 26.704,9.198 C26.424,8.618 26.032,8.116 25.528,7.692 C25.024,7.268 24.426,6.934 23.734,6.69 C23.042,6.446 22.284,6.324 21.46,6.324 C20.636,6.324 19.878,6.446 19.186,6.69 C18.494,6.934 17.896,7.268 17.392,7.692 C16.888,8.116 16.496,8.618 16.216,9.198 C15.936,9.778 15.796,10.408 15.796,11.088 C15.796,11.984 15.992,12.75 16.384,13.386 C16.776,14.022 17.368,14.52 18.16,14.88 C17.64,15.064 17.194,15.292 16.822,15.564 C16.45,15.836 16.146,16.148 15.91,16.5 C15.674,16.852 15.5,17.238 15.388,17.658 C15.276,18.078 15.22,18.524 15.22,18.996 C15.22,19.78 15.37,20.492 15.67,21.132 C15.97,21.772 16.394,22.318 16.942,22.77 C17.49,23.222 18.148,23.572 18.916,23.82 C19.684,24.068 20.532,24.192 21.46,24.192 Z M21.46,13.56 C21.044,13.56 20.704,13.492 20.44,13.356 C20.176,13.22 19.968,13.04 19.816,12.816 C19.664,12.592 19.56,12.336 19.504,12.048 C19.448,11.76 19.42,11.464 19.42,11.16 C19.42,10.888 19.456,10.624 19.528,10.368 C19.6,10.112 19.718,9.886 19.882,9.69 C20.046,9.494 20.256,9.336 20.512,9.216 C20.768,9.096 21.084,9.036 21.46,9.036 C21.828,9.036 22.142,9.096 22.402,9.216 C22.662,9.336 22.874,9.494 23.038,9.69 C23.202,9.886 23.32,10.112 23.392,10.368 C23.464,10.624 23.5,10.888 23.5,11.16 C23.5,11.464 23.472,11.76 23.416,12.048 C23.36,12.336 23.256,12.592 23.104,12.816 C22.952,13.04 22.744,13.22 22.48,13.356 C22.216,13.492 21.876,13.56 21.46,13.56 Z M21.46,21.384 C21.036,21.384 20.674,21.32 20.374,21.192 C20.074,21.064 19.826,20.89 19.63,20.67 C19.434,20.45 19.29,20.19 19.198,19.89 C19.106,19.59 19.06,19.268 19.06,18.924 C19.06,18.548 19.1,18.204 19.18,17.892 C19.26,17.58 19.392,17.314 19.576,17.094 C19.76,16.874 20.006,16.702 20.314,16.578 C20.622,16.454 21.004,16.392 21.46,16.392 C21.916,16.392 22.298,16.454 22.606,16.578 C22.914,16.702 23.16,16.874 23.344,17.094 C23.528,17.314 23.66,17.58 23.74,17.892 C23.82,18.204 23.86,18.548 23.86,18.924 C23.86,19.268 23.814,19.59 23.722,19.89 C23.63,20.19 23.486,20.45 23.29,20.67 C23.094,20.89 22.844,21.064 22.54,21.192 C22.236,21.32 21.876,21.384 21.46,21.384 Z" id="28" fill-opacity="0.25" fill="#000000"></path>
                    <path d="M14.672,69.192 C15.648,69.192 16.546,69.038 17.366,68.73 C18.186,68.422 18.892,67.988 19.484,67.428 C20.076,66.868 20.538,66.202 20.87,65.43 C21.202,64.658 21.368,63.804 21.368,62.868 C21.368,62.124 21.246,61.426 21.002,60.774 C20.758,60.122 20.396,59.554 19.916,59.07 C19.436,58.586 18.844,58.204 18.14,57.924 C17.436,57.644 16.624,57.504 15.704,57.504 C15.416,57.504 15.12,57.516 14.816,57.54 C14.512,57.564 14.196,57.608 13.868,57.672 L13.868,57.672 L14.36,54.78 L18.536,54.78 C18.928,54.78 19.264,54.738 19.544,54.654 C19.824,54.57 20.05,54.45 20.222,54.294 C20.394,54.138 20.52,53.956 20.6,53.748 C20.68,53.54 20.72,53.308 20.72,53.052 L20.72,53.052 L20.72,51.516 L11.768,51.516 L10.28,60.264 L12.584,60.888 C13.336,60.592 14.104,60.444 14.888,60.444 C15.768,60.444 16.448,60.666 16.928,61.11 C17.408,61.554 17.648,62.2 17.648,63.048 C17.648,63.48 17.598,63.886 17.498,64.266 C17.398,64.646 17.238,64.978 17.018,65.262 C16.798,65.546 16.512,65.77 16.16,65.934 C15.808,66.098 15.384,66.18 14.888,66.18 C14.392,66.18 13.976,66.116 13.64,65.988 C13.304,65.86 13.01,65.718 12.758,65.562 C12.506,65.406 12.274,65.262 12.062,65.13 C11.85,64.998 11.624,64.932 11.384,64.932 C11.2,64.932 11.028,64.974 10.868,65.058 C10.708,65.142 10.568,65.264 10.448,65.424 L10.448,65.424 L9.296,66.96 C9.608,67.264 9.956,67.55 10.34,67.818 C10.724,68.086 11.142,68.322 11.594,68.526 C12.046,68.73 12.53,68.892 13.046,69.012 C13.562,69.132 14.104,69.192 14.672,69.192 Z" id="5" fill="#FFFFFF"></path>
                    <path d="M66.588,24 L66.588,21.84 C66.588,21.48 66.472,21.19 66.24,20.97 C66.008,20.75 65.692,20.64 65.292,20.64 L65.292,20.64 L62.028,20.64 C61.66,20.64 61.26,20.676 60.828,20.748 C60.396,20.82 59.96,20.924 59.52,21.06 L59.52,21.06 L62.94,17.556 C63.404,17.084 63.842,16.618 64.254,16.158 C64.666,15.698 65.028,15.222 65.34,14.73 C65.652,14.238 65.898,13.72 66.078,13.176 C66.258,12.632 66.348,12.04 66.348,11.4 C66.348,10.656 66.218,9.974 65.958,9.354 C65.698,8.734 65.324,8.2 64.836,7.752 C64.348,7.304 63.758,6.954 63.066,6.702 C62.374,6.45 61.596,6.324 60.732,6.324 C59.932,6.324 59.184,6.43 58.488,6.642 C57.792,6.854 57.174,7.176 56.634,7.608 C56.094,8.04 55.642,8.58 55.278,9.228 C54.914,9.876 54.668,10.636 54.54,11.508 L54.54,11.508 L56.508,11.856 C57.012,11.936 57.4,11.904 57.672,11.76 C57.944,11.616 58.164,11.324 58.332,10.884 C58.476,10.452 58.738,10.09 59.118,9.798 C59.498,9.506 59.964,9.36 60.516,9.36 C61.196,9.36 61.702,9.546 62.034,9.918 C62.366,10.29 62.532,10.824 62.532,11.52 C62.532,11.944 62.48,12.346 62.376,12.726 C62.272,13.106 62.116,13.486 61.908,13.866 C61.7,14.246 61.436,14.632 61.116,15.024 C60.796,15.416 60.42,15.828 59.988,16.26 L59.988,16.26 L54.948,21.336 C54.708,21.552 54.54,21.792 54.444,22.056 C54.348,22.32 54.3,22.568 54.3,22.8 L54.3,22.8 L54.3,24 L66.588,24 Z M72.84,24 C73.272,24 73.658,23.92 73.998,23.76 C74.338,23.6 74.592,23.404 74.76,23.172 L74.76,23.172 L78.528,17.82 C79.104,17.02 79.564,16.168 79.908,15.264 C80.252,14.36 80.424,13.336 80.424,12.192 C80.424,11.328 80.286,10.538 80.01,9.822 C79.734,9.106 79.338,8.488 78.822,7.968 C78.306,7.448 77.676,7.044 76.932,6.756 C76.188,6.468 75.344,6.324 74.4,6.324 C73.472,6.324 72.632,6.478 71.88,6.786 C71.128,7.094 70.482,7.512 69.942,8.04 C69.402,8.568 68.986,9.184 68.694,9.888 C68.402,10.592 68.256,11.34 68.256,12.132 C68.256,12.996 68.4,13.744 68.688,14.376 C68.976,15.008 69.35,15.532 69.81,15.948 C70.27,16.364 70.784,16.674 71.352,16.878 C71.92,17.082 72.488,17.184 73.056,17.184 C73.992,17.184 74.828,16.988 75.564,16.596 C75.476,16.724 75.38,16.852 75.276,16.98 C75.172,17.108 75.064,17.24 74.952,17.376 L74.952,17.376 L69.408,24 L72.84,24 Z M74.4,14.472 C72.784,14.472 71.976,13.6 71.976,11.856 C71.976,11.488 72.03,11.146 72.138,10.83 C72.246,10.514 72.402,10.24 72.606,10.008 C72.81,9.776 73.058,9.594 73.35,9.462 C73.642,9.33 73.976,9.264 74.352,9.264 C74.72,9.264 75.06,9.32 75.372,9.432 C75.684,9.544 75.95,9.708 76.17,9.924 C76.39,10.14 76.562,10.41 76.686,10.734 C76.81,11.058 76.872,11.432 76.872,11.856 C76.872,12.648 76.658,13.282 76.23,13.758 C75.802,14.234 75.192,14.472 74.4,14.472 Z" id="29" fill-opacity="0.25" fill="#000000"></path>
                    <path d="M68.548,69.192 C69.5,69.192 70.368,69.032 71.152,68.712 C71.936,68.392 72.606,67.958 73.162,67.41 C73.718,66.862 74.148,66.222 74.452,65.49 C74.756,64.758 74.908,63.984 74.908,63.168 C74.908,62.272 74.758,61.494 74.458,60.834 C74.158,60.174 73.764,59.628 73.276,59.196 C72.788,58.764 72.236,58.444 71.62,58.236 C71.004,58.028 70.38,57.924 69.748,57.924 C69.06,57.924 68.436,58.028 67.876,58.236 L67.876,58.236 L68.332,57.708 L73.516,51.516 L70.204,51.516 C69.756,51.516 69.358,51.6 69.01,51.768 C68.662,51.936 68.396,52.136 68.212,52.368 L68.212,52.368 L64.276,57.684 C62.948,59.46 62.284,61.208 62.284,62.928 C62.284,63.848 62.426,64.692 62.71,65.46 C62.994,66.228 63.406,66.888 63.946,67.44 C64.486,67.992 65.144,68.422 65.92,68.73 C66.696,69.038 67.572,69.192 68.548,69.192 Z M68.476,66.252 C68.028,66.252 67.64,66.186 67.312,66.054 C66.984,65.922 66.712,65.732 66.496,65.484 C66.28,65.236 66.12,64.94 66.016,64.596 C65.912,64.252 65.86,63.864 65.86,63.432 C65.86,63 65.924,62.612 66.052,62.268 C66.18,61.924 66.358,61.628 66.586,61.38 C66.814,61.132 67.084,60.942 67.396,60.81 C67.708,60.678 68.052,60.612 68.428,60.612 C68.844,60.612 69.222,60.676 69.562,60.804 C69.902,60.932 70.192,61.116 70.432,61.356 C70.672,61.596 70.858,61.892 70.99,62.244 C71.122,62.596 71.188,62.996 71.188,63.444 C71.188,63.844 71.118,64.214 70.978,64.554 C70.838,64.894 70.648,65.19 70.408,65.442 C70.168,65.694 69.882,65.892 69.55,66.036 C69.218,66.18 68.86,66.252 68.476,66.252 Z" id="6" fill="#FFFFFF"></path>
                    <path d="M113.42,24.192 C114.228,24.192 115.004,24.078 115.748,23.85 C116.492,23.622 117.146,23.28 117.71,22.824 C118.274,22.368 118.724,21.796 119.06,21.108 C119.396,20.42 119.564,19.612 119.564,18.684 C119.564,16.724 118.596,15.404 116.66,14.724 C117.076,14.58 117.446,14.402 117.77,14.19 C118.094,13.978 118.366,13.718 118.586,13.41 C118.806,13.102 118.972,12.738 119.084,12.318 C119.196,11.898 119.252,11.412 119.252,10.86 C119.252,10.252 119.132,9.674 118.892,9.126 C118.652,8.578 118.3,8.096 117.836,7.68 C117.372,7.264 116.804,6.934 116.132,6.69 C115.46,6.446 114.692,6.324 113.828,6.324 C113.028,6.324 112.28,6.43 111.584,6.642 C110.888,6.854 110.27,7.176 109.73,7.608 C109.19,8.04 108.738,8.58 108.374,9.228 C108.01,9.876 107.764,10.636 107.636,11.508 L107.636,11.508 L109.604,11.856 C110.108,11.936 110.496,11.904 110.768,11.76 C111.04,11.616 111.26,11.324 111.428,10.884 C111.572,10.452 111.834,10.09 112.214,9.798 C112.594,9.506 113.06,9.36 113.612,9.36 C114.292,9.36 114.798,9.546 115.13,9.918 C115.462,10.29 115.628,10.82 115.628,11.508 C115.628,11.844 115.588,12.152 115.508,12.432 C115.428,12.712 115.266,12.95 115.022,13.146 C114.778,13.342 114.432,13.496 113.984,13.608 C113.536,13.72 112.948,13.776 112.22,13.776 L112.22,13.776 L112.22,16.344 C113.084,16.344 113.758,16.402 114.242,16.518 C114.726,16.634 115.088,16.8 115.328,17.016 C115.568,17.232 115.714,17.49 115.766,17.79 C115.818,18.09 115.844,18.428 115.844,18.804 C115.844,19.092 115.792,19.376 115.688,19.656 C115.584,19.936 115.43,20.186 115.226,20.406 C115.022,20.626 114.766,20.806 114.458,20.946 C114.15,21.086 113.788,21.156 113.372,21.156 C112.828,21.156 112.354,21.006 111.95,20.706 C111.546,20.406 111.164,19.924 110.804,19.26 C110.644,18.972 110.38,18.788 110.012,18.708 C109.644,18.628 109.244,18.672 108.812,18.84 L108.812,18.84 L107.156,19.512 C107.436,20.328 107.766,21.032 108.146,21.624 C108.526,22.216 108.968,22.702 109.472,23.082 C109.976,23.462 110.552,23.742 111.2,23.922 C111.848,24.102 112.588,24.192 113.42,24.192 Z M127.436,24.192 C128.364,24.192 129.226,24.012 130.022,23.652 C130.818,23.292 131.506,22.744 132.086,22.008 C132.666,21.272 133.12,20.344 133.448,19.224 C133.776,18.104 133.94,16.78 133.94,15.252 C133.94,13.724 133.776,12.4 133.448,11.28 C133.12,10.16 132.666,9.232 132.086,8.496 C131.506,7.76 130.818,7.214 130.022,6.858 C129.226,6.502 128.364,6.324 127.436,6.324 C126.508,6.324 125.65,6.502 124.862,6.858 C124.074,7.214 123.392,7.76 122.816,8.496 C122.24,9.232 121.79,10.16 121.466,11.28 C121.142,12.4 120.98,13.724 120.98,15.252 C120.98,16.78 121.142,18.104 121.466,19.224 C121.79,20.344 122.24,21.272 122.816,22.008 C123.392,22.744 124.074,23.292 124.862,23.652 C125.65,24.012 126.508,24.192 127.436,24.192 Z M127.436,21.204 C127.108,21.204 126.786,21.122 126.47,20.958 C126.154,20.794 125.874,20.49 125.63,20.046 C125.386,19.602 125.19,18.996 125.042,18.228 C124.894,17.46 124.82,16.468 124.82,15.252 C124.82,14.044 124.894,13.054 125.042,12.282 C125.19,11.51 125.386,10.904 125.63,10.464 C125.874,10.024 126.154,9.722 126.47,9.558 C126.786,9.394 127.108,9.312 127.436,9.312 C127.764,9.312 128.088,9.394 128.408,9.558 C128.728,9.722 129.014,10.024 129.266,10.464 C129.518,10.904 129.72,11.51 129.872,12.282 C130.024,13.054 130.1,14.044 130.1,15.252 C130.1,16.468 130.024,17.46 129.872,18.228 C129.72,18.996 129.518,19.602 129.266,20.046 C129.014,20.49 128.728,20.794 128.408,20.958 C128.088,21.122 127.764,21.204 127.436,21.204 Z" id="30" fill-opacity="0.25" fill="#000000"></path>
                    <path d="M119.304,69 C119.816,69 120.226,68.88 120.534,68.64 C120.842,68.4 121.08,68.112 121.248,67.776 L121.248,67.776 L127.32,54.912 C127.416,54.72 127.516,54.482 127.62,54.198 C127.724,53.914 127.776,53.54 127.776,53.076 L127.776,53.076 L127.776,51.516 L115.488,51.516 L115.488,53.964 C115.488,54.068 115.512,54.17 115.56,54.27 C115.608,54.37 115.67,54.458 115.746,54.534 C115.822,54.61 115.91,54.67 116.01,54.714 C116.11,54.758 116.216,54.78 116.328,54.78 L116.328,54.78 L124.02,54.78 C123.788,55.028 123.578,55.29 123.39,55.566 C123.202,55.842 123.016,56.148 122.832,56.484 L122.832,56.484 L116.592,69 L119.304,69 Z" id="7" fill="#1D262A"></path>
                    <path d="M179.152,24 L179.152,21.312 L176.272,21.312 L176.272,6.504 L173.2,6.504 L167.752,11.076 L168.928,12.636 C168.984,12.716 169.072,12.794 169.192,12.87 C169.312,12.946 169.448,12.998 169.6,13.026 C169.752,13.054 169.914,13.054 170.086,13.026 C170.258,12.998 170.432,12.916 170.608,12.78 L170.608,12.78 L172.6,11.124 C172.584,11.356 172.572,11.586 172.564,11.814 C172.556,12.042 172.552,12.268 172.552,12.492 L172.552,12.492 L172.552,21.312 L169.192,21.312 L169.192,24 L179.152,24 Z" id="1" fill="#1D262A"></path>
                    <path d="M174.5,69.192 C175.428,69.192 176.276,69.068 177.044,68.82 C177.812,68.572 178.47,68.222 179.018,67.77 C179.566,67.318 179.99,66.772 180.29,66.132 C180.59,65.492 180.74,64.78 180.74,63.996 C180.74,63.524 180.684,63.078 180.572,62.658 C180.46,62.238 180.286,61.852 180.05,61.5 C179.814,61.148 179.51,60.836 179.138,60.564 C178.766,60.292 178.32,60.064 177.8,59.88 C178.592,59.52 179.184,59.022 179.576,58.386 C179.968,57.75 180.164,56.984 180.164,56.088 C180.164,55.408 180.024,54.778 179.744,54.198 C179.464,53.618 179.072,53.116 178.568,52.692 C178.064,52.268 177.466,51.934 176.774,51.69 C176.082,51.446 175.324,51.324 174.5,51.324 C173.676,51.324 172.918,51.446 172.226,51.69 C171.534,51.934 170.936,52.268 170.432,52.692 C169.928,53.116 169.536,53.618 169.256,54.198 C168.976,54.778 168.836,55.408 168.836,56.088 C168.836,56.984 169.032,57.75 169.424,58.386 C169.816,59.022 170.408,59.52 171.2,59.88 C170.68,60.064 170.234,60.292 169.862,60.564 C169.49,60.836 169.186,61.148 168.95,61.5 C168.714,61.852 168.54,62.238 168.428,62.658 C168.316,63.078 168.26,63.524 168.26,63.996 C168.26,64.78 168.41,65.492 168.71,66.132 C169.01,66.772 169.434,67.318 169.982,67.77 C170.53,68.222 171.188,68.572 171.956,68.82 C172.724,69.068 173.572,69.192 174.5,69.192 Z M174.5,58.56 C174.084,58.56 173.744,58.492 173.48,58.356 C173.216,58.22 173.008,58.04 172.856,57.816 C172.704,57.592 172.6,57.336 172.544,57.048 C172.488,56.76 172.46,56.464 172.46,56.16 C172.46,55.888 172.496,55.624 172.568,55.368 C172.64,55.112 172.758,54.886 172.922,54.69 C173.086,54.494 173.296,54.336 173.552,54.216 C173.808,54.096 174.124,54.036 174.5,54.036 C174.868,54.036 175.182,54.096 175.442,54.216 C175.702,54.336 175.914,54.494 176.078,54.69 C176.242,54.886 176.36,55.112 176.432,55.368 C176.504,55.624 176.54,55.888 176.54,56.16 C176.54,56.464 176.512,56.76 176.456,57.048 C176.4,57.336 176.296,57.592 176.144,57.816 C175.992,58.04 175.784,58.22 175.52,58.356 C175.256,58.492 174.916,58.56 174.5,58.56 Z M174.5,66.384 C174.076,66.384 173.714,66.32 173.414,66.192 C173.114,66.064 172.866,65.89 172.67,65.67 C172.474,65.45 172.33,65.19 172.238,64.89 C172.146,64.59 172.1,64.268 172.1,63.924 C172.1,63.548 172.14,63.204 172.22,62.892 C172.3,62.58 172.432,62.314 172.616,62.094 C172.8,61.874 173.046,61.702 173.354,61.578 C173.662,61.454 174.044,61.392 174.5,61.392 C174.956,61.392 175.338,61.454 175.646,61.578 C175.954,61.702 176.2,61.874 176.384,62.094 C176.568,62.314 176.7,62.58 176.78,62.892 C176.86,63.204 176.9,63.548 176.9,63.924 C176.9,64.268 176.854,64.59 176.762,64.89 C176.67,65.19 176.526,65.45 176.33,65.67 C176.134,65.89 175.884,66.064 175.58,66.192 C175.276,66.32 174.916,66.384 174.5,66.384 Z" id="8" fill="#1D262A"></path>
                    <path d="M279.38,24.192 C280.188,24.192 280.964,24.078 281.708,23.85 C282.452,23.622 283.106,23.28 283.67,22.824 C284.234,22.368 284.684,21.796 285.02,21.108 C285.356,20.42 285.524,19.612 285.524,18.684 C285.524,16.724 284.556,15.404 282.62,14.724 C283.036,14.58 283.406,14.402 283.73,14.19 C284.054,13.978 284.326,13.718 284.546,13.41 C284.766,13.102 284.932,12.738 285.044,12.318 C285.156,11.898 285.212,11.412 285.212,10.86 C285.212,10.252 285.092,9.674 284.852,9.126 C284.612,8.578 284.26,8.096 283.796,7.68 C283.332,7.264 282.764,6.934 282.092,6.69 C281.42,6.446 280.652,6.324 279.788,6.324 C278.988,6.324 278.24,6.43 277.544,6.642 C276.848,6.854 276.23,7.176 275.69,7.608 C275.15,8.04 274.698,8.58 274.334,9.228 C273.97,9.876 273.724,10.636 273.596,11.508 L273.596,11.508 L275.564,11.856 C276.068,11.936 276.456,11.904 276.728,11.76 C277,11.616 277.22,11.324 277.388,10.884 C277.532,10.452 277.794,10.09 278.174,9.798 C278.554,9.506 279.02,9.36 279.572,9.36 C280.252,9.36 280.758,9.546 281.09,9.918 C281.422,10.29 281.588,10.82 281.588,11.508 C281.588,11.844 281.548,12.152 281.468,12.432 C281.388,12.712 281.226,12.95 280.982,13.146 C280.738,13.342 280.392,13.496 279.944,13.608 C279.496,13.72 278.908,13.776 278.18,13.776 L278.18,13.776 L278.18,16.344 C279.044,16.344 279.718,16.402 280.202,16.518 C280.686,16.634 281.048,16.8 281.288,17.016 C281.528,17.232 281.674,17.49 281.726,17.79 C281.778,18.09 281.804,18.428 281.804,18.804 C281.804,19.092 281.752,19.376 281.648,19.656 C281.544,19.936 281.39,20.186 281.186,20.406 C280.982,20.626 280.726,20.806 280.418,20.946 C280.11,21.086 279.748,21.156 279.332,21.156 C278.788,21.156 278.314,21.006 277.91,20.706 C277.506,20.406 277.124,19.924 276.764,19.26 C276.604,18.972 276.34,18.788 275.972,18.708 C275.604,18.628 275.204,18.672 274.772,18.84 L274.772,18.84 L273.116,19.512 C273.396,20.328 273.726,21.032 274.106,21.624 C274.486,22.216 274.928,22.702 275.432,23.082 C275.936,23.462 276.512,23.742 277.16,23.922 C277.808,24.102 278.548,24.192 279.38,24.192 Z" id="3" fill="#1D262A"></path>
                    <path d="M279.192,69 L279.192,66.312 L276.312,66.312 L276.312,51.504 L273.24,51.504 L267.792,56.076 L268.968,57.636 C269.024,57.716 269.112,57.794 269.232,57.87 C269.352,57.946 269.488,57.998 269.64,58.026 C269.792,58.054 269.954,58.054 270.126,58.026 C270.298,57.998 270.472,57.916 270.648,57.78 L270.648,57.78 L272.64,56.124 C272.624,56.356 272.612,56.586 272.604,56.814 C272.596,57.042 272.592,57.268 272.592,57.492 L272.592,57.492 L272.592,66.312 L269.232,66.312 L269.232,69 L279.192,69 Z M287.436,69.192 C288.364,69.192 289.226,69.012 290.022,68.652 C290.818,68.292 291.506,67.744 292.086,67.008 C292.666,66.272 293.12,65.344 293.448,64.224 C293.776,63.104 293.94,61.78 293.94,60.252 C293.94,58.724 293.776,57.4 293.448,56.28 C293.12,55.16 292.666,54.232 292.086,53.496 C291.506,52.76 290.818,52.214 290.022,51.858 C289.226,51.502 288.364,51.324 287.436,51.324 C286.508,51.324 285.65,51.502 284.862,51.858 C284.074,52.214 283.392,52.76 282.816,53.496 C282.24,54.232 281.79,55.16 281.466,56.28 C281.142,57.4 280.98,58.724 280.98,60.252 C280.98,61.78 281.142,63.104 281.466,64.224 C281.79,65.344 282.24,66.272 282.816,67.008 C283.392,67.744 284.074,68.292 284.862,68.652 C285.65,69.012 286.508,69.192 287.436,69.192 Z M287.436,66.204 C287.108,66.204 286.786,66.122 286.47,65.958 C286.154,65.794 285.874,65.49 285.63,65.046 C285.386,64.602 285.19,63.996 285.042,63.228 C284.894,62.46 284.82,61.468 284.82,60.252 C284.82,59.044 284.894,58.054 285.042,57.282 C285.19,56.51 285.386,55.904 285.63,55.464 C285.874,55.024 286.154,54.722 286.47,54.558 C286.786,54.394 287.108,54.312 287.436,54.312 C287.764,54.312 288.088,54.394 288.408,54.558 C288.728,54.722 289.014,55.024 289.266,55.464 C289.518,55.904 289.72,56.51 289.872,57.282 C290.024,58.054 290.1,59.044 290.1,60.252 C290.1,61.468 290.024,62.46 289.872,63.228 C289.72,63.996 289.518,64.602 289.266,65.046 C289.014,65.49 288.728,65.794 288.408,65.958 C288.088,66.122 287.764,66.204 287.436,66.204 Z" id="10" fill="#1D262A"></path>
                    <path d="M232.548,24 L232.548,21.84 C232.548,21.48 232.432,21.19 232.2,20.97 C231.968,20.75 231.652,20.64 231.252,20.64 L231.252,20.64 L227.988,20.64 C227.62,20.64 227.22,20.676 226.788,20.748 C226.356,20.82 225.92,20.924 225.48,21.06 L225.48,21.06 L228.9,17.556 C229.364,17.084 229.802,16.618 230.214,16.158 C230.626,15.698 230.988,15.222 231.3,14.73 C231.612,14.238 231.858,13.72 232.038,13.176 C232.218,12.632 232.308,12.04 232.308,11.4 C232.308,10.656 232.178,9.974 231.918,9.354 C231.658,8.734 231.284,8.2 230.796,7.752 C230.308,7.304 229.718,6.954 229.026,6.702 C228.334,6.45 227.556,6.324 226.692,6.324 C225.892,6.324 225.144,6.43 224.448,6.642 C223.752,6.854 223.134,7.176 222.594,7.608 C222.054,8.04 221.602,8.58 221.238,9.228 C220.874,9.876 220.628,10.636 220.5,11.508 L220.5,11.508 L222.468,11.856 C222.972,11.936 223.36,11.904 223.632,11.76 C223.904,11.616 224.124,11.324 224.292,10.884 C224.436,10.452 224.698,10.09 225.078,9.798 C225.458,9.506 225.924,9.36 226.476,9.36 C227.156,9.36 227.662,9.546 227.994,9.918 C228.326,10.29 228.492,10.824 228.492,11.52 C228.492,11.944 228.44,12.346 228.336,12.726 C228.232,13.106 228.076,13.486 227.868,13.866 C227.66,14.246 227.396,14.632 227.076,15.024 C226.756,15.416 226.38,15.828 225.948,16.26 L225.948,16.26 L220.908,21.336 C220.668,21.552 220.5,21.792 220.404,22.056 C220.308,22.32 220.26,22.568 220.26,22.8 L220.26,22.8 L220.26,24 L232.548,24 Z" id="2" fill="#1D262A"></path>
                    <path d="M225.88,69 C226.312,69 226.698,68.92 227.038,68.76 C227.378,68.6 227.632,68.404 227.8,68.172 L227.8,68.172 L231.568,62.82 C232.144,62.02 232.604,61.168 232.948,60.264 C233.292,59.36 233.464,58.336 233.464,57.192 C233.464,56.328 233.326,55.538 233.05,54.822 C232.774,54.106 232.378,53.488 231.862,52.968 C231.346,52.448 230.716,52.044 229.972,51.756 C229.228,51.468 228.384,51.324 227.44,51.324 C226.512,51.324 225.672,51.478 224.92,51.786 C224.168,52.094 223.522,52.512 222.982,53.04 C222.442,53.568 222.026,54.184 221.734,54.888 C221.442,55.592 221.296,56.34 221.296,57.132 C221.296,57.996 221.44,58.744 221.728,59.376 C222.016,60.008 222.39,60.532 222.85,60.948 C223.31,61.364 223.824,61.674 224.392,61.878 C224.96,62.082 225.528,62.184 226.096,62.184 C227.032,62.184 227.868,61.988 228.604,61.596 C228.516,61.724 228.42,61.852 228.316,61.98 C228.212,62.108 228.104,62.24 227.992,62.376 L227.992,62.376 L222.448,69 L225.88,69 Z M227.44,59.472 C225.824,59.472 225.016,58.6 225.016,56.856 C225.016,56.488 225.07,56.146 225.178,55.83 C225.286,55.514 225.442,55.24 225.646,55.008 C225.85,54.776 226.098,54.594 226.39,54.462 C226.682,54.33 227.016,54.264 227.392,54.264 C227.76,54.264 228.1,54.32 228.412,54.432 C228.724,54.544 228.99,54.708 229.21,54.924 C229.43,55.14 229.602,55.41 229.726,55.734 C229.85,56.058 229.912,56.432 229.912,56.856 C229.912,57.648 229.698,58.282 229.27,58.758 C228.842,59.234 228.232,59.472 227.44,59.472 Z" id="9" fill="#1D262A"></path>
                    <path d="M337.12,24 L337.12,19.98 L338.2,19.98 C338.432,19.98 338.61,19.912 338.734,19.776 C338.858,19.64 338.92,19.48 338.92,19.296 L338.92,19.296 L338.92,17.208 L337.12,17.208 L337.12,6.516 L333.568,6.516 L325.48,17.388 L325.864,19.224 C325.912,19.44 326.03,19.62 326.218,19.764 C326.406,19.908 326.616,19.98 326.848,19.98 L326.848,19.98 L333.88,19.98 L333.88,24 L337.12,24 Z M333.88,17.208 L329.38,17.208 L334,10.728 C333.96,11.08 333.93,11.418 333.91,11.742 C333.89,12.066 333.88,12.368 333.88,12.648 L333.88,12.648 L333.88,17.208 Z" id="4" fill="#FFBE52"></path>
                    <path d="M332.192,69 L332.192,66.312 L329.312,66.312 L329.312,51.504 L326.24,51.504 L320.792,56.076 L321.968,57.636 C322.024,57.716 322.112,57.794 322.232,57.87 C322.352,57.946 322.488,57.998 322.64,58.026 C322.792,58.054 322.954,58.054 323.126,58.026 C323.298,57.998 323.472,57.916 323.648,57.78 L323.648,57.78 L325.64,56.124 C325.624,56.356 325.612,56.586 325.604,56.814 C325.596,57.042 325.592,57.268 325.592,57.492 L325.592,57.492 L325.592,66.312 L322.232,66.312 L322.232,69 L332.192,69 Z M346.112,69 L346.112,66.312 L343.232,66.312 L343.232,51.504 L340.16,51.504 L334.712,56.076 L335.888,57.636 C335.944,57.716 336.032,57.794 336.152,57.87 C336.272,57.946 336.408,57.998 336.56,58.026 C336.712,58.054 336.874,58.054 337.046,58.026 C337.218,57.998 337.392,57.916 337.568,57.78 L337.568,57.78 L339.56,56.124 C339.544,56.356 339.532,56.586 339.524,56.814 C339.516,57.042 339.512,57.268 339.512,57.492 L339.512,57.492 L339.512,66.312 L336.152,66.312 L336.152,69 L346.112,69 Z" id="11" fill="#FFBE52"></path>
                    <path d="M15.192,114 L15.192,111.312 L12.312,111.312 L12.312,96.504 L9.24,96.504 L3.792,101.076 L4.968,102.636 C5.024,102.716 5.112,102.794 5.232,102.87 C5.352,102.946 5.488,102.998 5.64,103.026 C5.792,103.054 5.954,103.054 6.126,103.026 C6.298,102.998 6.472,102.916 6.648,102.78 L6.648,102.78 L8.64,101.124 C8.624,101.356 8.612,101.586 8.604,101.814 C8.596,102.042 8.592,102.268 8.592,102.492 L8.592,102.492 L8.592,111.312 L5.232,111.312 L5.232,114 L15.192,114 Z M29.508,114 L29.508,111.84 C29.508,111.48 29.392,111.19 29.16,110.97 C28.928,110.75 28.612,110.64 28.212,110.64 L28.212,110.64 L24.948,110.64 C24.58,110.64 24.18,110.676 23.748,110.748 C23.316,110.82 22.88,110.924 22.44,111.06 L22.44,111.06 L25.86,107.556 C26.324,107.084 26.762,106.618 27.174,106.158 C27.586,105.698 27.948,105.222 28.26,104.73 C28.572,104.238 28.818,103.72 28.998,103.176 C29.178,102.632 29.268,102.04 29.268,101.4 C29.268,100.656 29.138,99.974 28.878,99.354 C28.618,98.734 28.244,98.2 27.756,97.752 C27.268,97.304 26.678,96.954 25.986,96.702 C25.294,96.45 24.516,96.324 23.652,96.324 C22.852,96.324 22.104,96.43 21.408,96.642 C20.712,96.854 20.094,97.176 19.554,97.608 C19.014,98.04 18.562,98.58 18.198,99.228 C17.834,99.876 17.588,100.636 17.46,101.508 L17.46,101.508 L19.428,101.856 C19.932,101.936 20.32,101.904 20.592,101.76 C20.864,101.616 21.084,101.324 21.252,100.884 C21.396,100.452 21.658,100.09 22.038,99.798 C22.418,99.506 22.884,99.36 23.436,99.36 C24.116,99.36 24.622,99.546 24.954,99.918 C25.286,100.29 25.452,100.824 25.452,101.52 C25.452,101.944 25.4,102.346 25.296,102.726 C25.192,103.106 25.036,103.486 24.828,103.866 C24.62,104.246 24.356,104.632 24.036,105.024 C23.716,105.416 23.34,105.828 22.908,106.26 L22.908,106.26 L17.868,111.336 C17.628,111.552 17.46,111.792 17.364,112.056 C17.268,112.32 17.22,112.568 17.22,112.8 L17.22,112.8 L17.22,114 L29.508,114 Z" id="12" fill="#FFFFFF"></path>
                    <path d="M68.192,114 L68.192,111.312 L65.312,111.312 L65.312,96.504 L62.24,96.504 L56.792,101.076 L57.968,102.636 C58.024,102.716 58.112,102.794 58.232,102.87 C58.352,102.946 58.488,102.998 58.64,103.026 C58.792,103.054 58.954,103.054 59.126,103.026 C59.298,102.998 59.472,102.916 59.648,102.78 L59.648,102.78 L61.64,101.124 C61.624,101.356 61.612,101.586 61.604,101.814 C61.596,102.042 61.592,102.268 61.592,102.492 L61.592,102.492 L61.592,111.312 L58.232,111.312 L58.232,114 L68.192,114 Z M76.34,114.192 C77.148,114.192 77.924,114.078 78.668,113.85 C79.412,113.622 80.066,113.28 80.63,112.824 C81.194,112.368 81.644,111.796 81.98,111.108 C82.316,110.42 82.484,109.612 82.484,108.684 C82.484,106.724 81.516,105.404 79.58,104.724 C79.996,104.58 80.366,104.402 80.69,104.19 C81.014,103.978 81.286,103.718 81.506,103.41 C81.726,103.102 81.892,102.738 82.004,102.318 C82.116,101.898 82.172,101.412 82.172,100.86 C82.172,100.252 82.052,99.674 81.812,99.126 C81.572,98.578 81.22,98.096 80.756,97.68 C80.292,97.264 79.724,96.934 79.052,96.69 C78.38,96.446 77.612,96.324 76.748,96.324 C75.948,96.324 75.2,96.43 74.504,96.642 C73.808,96.854 73.19,97.176 72.65,97.608 C72.11,98.04 71.658,98.58 71.294,99.228 C70.93,99.876 70.684,100.636 70.556,101.508 L70.556,101.508 L72.524,101.856 C73.028,101.936 73.416,101.904 73.688,101.76 C73.96,101.616 74.18,101.324 74.348,100.884 C74.492,100.452 74.754,100.09 75.134,99.798 C75.514,99.506 75.98,99.36 76.532,99.36 C77.212,99.36 77.718,99.546 78.05,99.918 C78.382,100.29 78.548,100.82 78.548,101.508 C78.548,101.844 78.508,102.152 78.428,102.432 C78.348,102.712 78.186,102.95 77.942,103.146 C77.698,103.342 77.352,103.496 76.904,103.608 C76.456,103.72 75.868,103.776 75.14,103.776 L75.14,103.776 L75.14,106.344 C76.004,106.344 76.678,106.402 77.162,106.518 C77.646,106.634 78.008,106.8 78.248,107.016 C78.488,107.232 78.634,107.49 78.686,107.79 C78.738,108.09 78.764,108.428 78.764,108.804 C78.764,109.092 78.712,109.376 78.608,109.656 C78.504,109.936 78.35,110.186 78.146,110.406 C77.942,110.626 77.686,110.806 77.378,110.946 C77.07,111.086 76.708,111.156 76.292,111.156 C75.748,111.156 75.274,111.006 74.87,110.706 C74.466,110.406 74.084,109.924 73.724,109.26 C73.564,108.972 73.3,108.788 72.932,108.708 C72.564,108.628 72.164,108.672 71.732,108.84 L71.732,108.84 L70.076,109.512 C70.356,110.328 70.686,111.032 71.066,111.624 C71.446,112.216 71.888,112.702 72.392,113.082 C72.896,113.462 73.472,113.742 74.12,113.922 C74.768,114.102 75.508,114.192 76.34,114.192 Z" id="13" fill="#1D262A"></path>
                    <path d="M121.192,114 L121.192,111.312 L118.312,111.312 L118.312,96.504 L115.24,96.504 L109.792,101.076 L110.968,102.636 C111.024,102.716 111.112,102.794 111.232,102.87 C111.352,102.946 111.488,102.998 111.64,103.026 C111.792,103.054 111.954,103.054 112.126,103.026 C112.298,102.998 112.472,102.916 112.648,102.78 L112.648,102.78 L114.64,101.124 C114.624,101.356 114.612,101.586 114.604,101.814 C114.596,102.042 114.592,102.268 114.592,102.492 L114.592,102.492 L114.592,111.312 L111.232,111.312 L111.232,114 L121.192,114 Z M134.08,114 L134.08,109.98 L135.16,109.98 C135.392,109.98 135.57,109.912 135.694,109.776 C135.818,109.64 135.88,109.48 135.88,109.296 L135.88,109.296 L135.88,107.208 L134.08,107.208 L134.08,96.516 L130.528,96.516 L122.44,107.388 L122.824,109.224 C122.872,109.44 122.99,109.62 123.178,109.764 C123.366,109.908 123.576,109.98 123.808,109.98 L123.808,109.98 L130.84,109.98 L130.84,114 L134.08,114 Z M130.84,107.208 L126.34,107.208 L130.96,100.728 C130.92,101.08 130.89,101.418 130.87,101.742 C130.85,102.066 130.84,102.368 130.84,102.648 L130.84,102.648 L130.84,107.208 Z" id="14" fill="#1D262A"></path>
                    <path d="M174.192,114 L174.192,111.312 L171.312,111.312 L171.312,96.504 L168.24,96.504 L162.792,101.076 L163.968,102.636 C164.024,102.716 164.112,102.794 164.232,102.87 C164.352,102.946 164.488,102.998 164.64,103.026 C164.792,103.054 164.954,103.054 165.126,103.026 C165.298,102.998 165.472,102.916 165.648,102.78 L165.648,102.78 L167.64,101.124 C167.624,101.356 167.612,101.586 167.604,101.814 C167.596,102.042 167.592,102.268 167.592,102.492 L167.592,102.492 L167.592,111.312 L164.232,111.312 L164.232,114 L174.192,114 Z M181.632,114.192 C182.608,114.192 183.506,114.038 184.326,113.73 C185.146,113.422 185.852,112.988 186.444,112.428 C187.036,111.868 187.498,111.202 187.83,110.43 C188.162,109.658 188.328,108.804 188.328,107.868 C188.328,107.124 188.206,106.426 187.962,105.774 C187.718,105.122 187.356,104.554 186.876,104.07 C186.396,103.586 185.804,103.204 185.1,102.924 C184.396,102.644 183.584,102.504 182.664,102.504 C182.376,102.504 182.08,102.516 181.776,102.54 C181.472,102.564 181.156,102.608 180.828,102.672 L180.828,102.672 L181.32,99.78 L185.496,99.78 C185.888,99.78 186.224,99.738 186.504,99.654 C186.784,99.57 187.01,99.45 187.182,99.294 C187.354,99.138 187.48,98.956 187.56,98.748 C187.64,98.54 187.68,98.308 187.68,98.052 L187.68,98.052 L187.68,96.516 L178.728,96.516 L177.24,105.264 L179.544,105.888 C180.296,105.592 181.064,105.444 181.848,105.444 C182.728,105.444 183.408,105.666 183.888,106.11 C184.368,106.554 184.608,107.2 184.608,108.048 C184.608,108.48 184.558,108.886 184.458,109.266 C184.358,109.646 184.198,109.978 183.978,110.262 C183.758,110.546 183.472,110.77 183.12,110.934 C182.768,111.098 182.344,111.18 181.848,111.18 C181.352,111.18 180.936,111.116 180.6,110.988 C180.264,110.86 179.97,110.718 179.718,110.562 C179.466,110.406 179.234,110.262 179.022,110.13 C178.81,109.998 178.584,109.932 178.344,109.932 C178.16,109.932 177.988,109.974 177.828,110.058 C177.668,110.142 177.528,110.264 177.408,110.424 L177.408,110.424 L176.256,111.96 C176.568,112.264 176.916,112.55 177.3,112.818 C177.684,113.086 178.102,113.322 178.554,113.526 C179.006,113.73 179.49,113.892 180.006,114.012 C180.522,114.132 181.064,114.192 181.632,114.192 Z" id="15" fill="#1D262A"></path>
                    <path d="M280.192,114 L280.192,111.312 L277.312,111.312 L277.312,96.504 L274.24,96.504 L268.792,101.076 L269.968,102.636 C270.024,102.716 270.112,102.794 270.232,102.87 C270.352,102.946 270.488,102.998 270.64,103.026 C270.792,103.054 270.954,103.054 271.126,103.026 C271.298,102.998 271.472,102.916 271.648,102.78 L271.648,102.78 L273.64,101.124 C273.624,101.356 273.612,101.586 273.604,101.814 C273.596,102.042 273.592,102.268 273.592,102.492 L273.592,102.492 L273.592,111.312 L270.232,111.312 L270.232,114 L280.192,114 Z M286.264,114 C286.776,114 287.186,113.88 287.494,113.64 C287.802,113.4 288.04,113.112 288.208,112.776 L288.208,112.776 L294.28,99.912 C294.376,99.72 294.476,99.482 294.58,99.198 C294.684,98.914 294.736,98.54 294.736,98.076 L294.736,98.076 L294.736,96.516 L282.448,96.516 L282.448,98.964 C282.448,99.068 282.472,99.17 282.52,99.27 C282.568,99.37 282.63,99.458 282.706,99.534 C282.782,99.61 282.87,99.67 282.97,99.714 C283.07,99.758 283.176,99.78 283.288,99.78 L283.288,99.78 L290.98,99.78 C290.748,100.028 290.538,100.29 290.35,100.566 C290.162,100.842 289.976,101.148 289.792,101.484 L289.792,101.484 L283.552,114 L286.264,114 Z" id="17" fill="#1D262A"></path>
                    <path d="M227.192,114 L227.192,111.312 L224.312,111.312 L224.312,96.504 L221.24,96.504 L215.792,101.076 L216.968,102.636 C217.024,102.716 217.112,102.794 217.232,102.87 C217.352,102.946 217.488,102.998 217.64,103.026 C217.792,103.054 217.954,103.054 218.126,103.026 C218.298,102.998 218.472,102.916 218.648,102.78 L218.648,102.78 L220.64,101.124 C220.624,101.356 220.612,101.586 220.604,101.814 C220.596,102.042 220.592,102.268 220.592,102.492 L220.592,102.492 L220.592,111.312 L217.232,111.312 L217.232,114 L227.192,114 Z M235.508,114.192 C236.46,114.192 237.328,114.032 238.112,113.712 C238.896,113.392 239.566,112.958 240.122,112.41 C240.678,111.862 241.108,111.222 241.412,110.49 C241.716,109.758 241.868,108.984 241.868,108.168 C241.868,107.272 241.718,106.494 241.418,105.834 C241.118,105.174 240.724,104.628 240.236,104.196 C239.748,103.764 239.196,103.444 238.58,103.236 C237.964,103.028 237.34,102.924 236.708,102.924 C236.02,102.924 235.396,103.028 234.836,103.236 L234.836,103.236 L235.292,102.708 L240.476,96.516 L237.164,96.516 C236.716,96.516 236.318,96.6 235.97,96.768 C235.622,96.936 235.356,97.136 235.172,97.368 L235.172,97.368 L231.236,102.684 C229.908,104.46 229.244,106.208 229.244,107.928 C229.244,108.848 229.386,109.692 229.67,110.46 C229.954,111.228 230.366,111.888 230.906,112.44 C231.446,112.992 232.104,113.422 232.88,113.73 C233.656,114.038 234.532,114.192 235.508,114.192 Z M235.436,111.252 C234.988,111.252 234.6,111.186 234.272,111.054 C233.944,110.922 233.672,110.732 233.456,110.484 C233.24,110.236 233.08,109.94 232.976,109.596 C232.872,109.252 232.82,108.864 232.82,108.432 C232.82,108 232.884,107.612 233.012,107.268 C233.14,106.924 233.318,106.628 233.546,106.38 C233.774,106.132 234.044,105.942 234.356,105.81 C234.668,105.678 235.012,105.612 235.388,105.612 C235.804,105.612 236.182,105.676 236.522,105.804 C236.862,105.932 237.152,106.116 237.392,106.356 C237.632,106.596 237.818,106.892 237.95,107.244 C238.082,107.596 238.148,107.996 238.148,108.444 C238.148,108.844 238.078,109.214 237.938,109.554 C237.798,109.894 237.608,110.19 237.368,110.442 C237.128,110.694 236.842,110.892 236.51,111.036 C236.178,111.18 235.82,111.252 235.436,111.252 Z" id="16" fill="#1D262A"></path>
                    <path d="M333.192,114 L333.192,111.312 L330.312,111.312 L330.312,96.504 L327.24,96.504 L321.792,101.076 L322.968,102.636 C323.024,102.716 323.112,102.794 323.232,102.87 C323.352,102.946 323.488,102.998 323.64,103.026 C323.792,103.054 323.954,103.054 324.126,103.026 C324.298,102.998 324.472,102.916 324.648,102.78 L324.648,102.78 L326.64,101.124 C326.624,101.356 326.612,101.586 326.604,101.814 C326.596,102.042 326.592,102.268 326.592,102.492 L326.592,102.492 L326.592,111.312 L323.232,111.312 L323.232,114 L333.192,114 Z M341.46,114.192 C342.388,114.192 343.236,114.068 344.004,113.82 C344.772,113.572 345.43,113.222 345.978,112.77 C346.526,112.318 346.95,111.772 347.25,111.132 C347.55,110.492 347.7,109.78 347.7,108.996 C347.7,108.524 347.644,108.078 347.532,107.658 C347.42,107.238 347.246,106.852 347.01,106.5 C346.774,106.148 346.47,105.836 346.098,105.564 C345.726,105.292 345.28,105.064 344.76,104.88 C345.552,104.52 346.144,104.022 346.536,103.386 C346.928,102.75 347.124,101.984 347.124,101.088 C347.124,100.408 346.984,99.778 346.704,99.198 C346.424,98.618 346.032,98.116 345.528,97.692 C345.024,97.268 344.426,96.934 343.734,96.69 C343.042,96.446 342.284,96.324 341.46,96.324 C340.636,96.324 339.878,96.446 339.186,96.69 C338.494,96.934 337.896,97.268 337.392,97.692 C336.888,98.116 336.496,98.618 336.216,99.198 C335.936,99.778 335.796,100.408 335.796,101.088 C335.796,101.984 335.992,102.75 336.384,103.386 C336.776,104.022 337.368,104.52 338.16,104.88 C337.64,105.064 337.194,105.292 336.822,105.564 C336.45,105.836 336.146,106.148 335.91,106.5 C335.674,106.852 335.5,107.238 335.388,107.658 C335.276,108.078 335.22,108.524 335.22,108.996 C335.22,109.78 335.37,110.492 335.67,111.132 C335.97,111.772 336.394,112.318 336.942,112.77 C337.49,113.222 338.148,113.572 338.916,113.82 C339.684,114.068 340.532,114.192 341.46,114.192 Z M341.46,103.56 C341.044,103.56 340.704,103.492 340.44,103.356 C340.176,103.22 339.968,103.04 339.816,102.816 C339.664,102.592 339.56,102.336 339.504,102.048 C339.448,101.76 339.42,101.464 339.42,101.16 C339.42,100.888 339.456,100.624 339.528,100.368 C339.6,100.112 339.718,99.886 339.882,99.69 C340.046,99.494 340.256,99.336 340.512,99.216 C340.768,99.096 341.084,99.036 341.46,99.036 C341.828,99.036 342.142,99.096 342.402,99.216 C342.662,99.336 342.874,99.494 343.038,99.69 C343.202,99.886 343.32,100.112 343.392,100.368 C343.464,100.624 343.5,100.888 343.5,101.16 C343.5,101.464 343.472,101.76 343.416,102.048 C343.36,102.336 343.256,102.592 343.104,102.816 C342.952,103.04 342.744,103.22 342.48,103.356 C342.216,103.492 341.876,103.56 341.46,103.56 Z M341.46,111.384 C341.036,111.384 340.674,111.32 340.374,111.192 C340.074,111.064 339.826,110.89 339.63,110.67 C339.434,110.45 339.29,110.19 339.198,109.89 C339.106,109.59 339.06,109.268 339.06,108.924 C339.06,108.548 339.1,108.204 339.18,107.892 C339.26,107.58 339.392,107.314 339.576,107.094 C339.76,106.874 340.006,106.702 340.314,106.578 C340.622,106.454 341.004,106.392 341.46,106.392 C341.916,106.392 342.298,106.454 342.606,106.578 C342.914,106.702 343.16,106.874 343.344,107.094 C343.528,107.314 343.66,107.58 343.74,107.892 C343.82,108.204 343.86,108.548 343.86,108.924 C343.86,109.268 343.814,109.59 343.722,109.89 C343.63,110.19 343.486,110.45 343.29,110.67 C343.094,110.89 342.844,111.064 342.54,111.192 C342.236,111.32 341.876,111.384 341.46,111.384 Z" id="18" fill="#FFBE52"></path>
                    <path d="M16.192,159 L16.192,156.312 L13.312,156.312 L13.312,141.504 L10.24,141.504 L4.792,146.076 L5.968,147.636 C6.024,147.716 6.112,147.794 6.232,147.87 C6.352,147.946 6.488,147.998 6.64,148.026 C6.792,148.054 6.954,148.054 7.126,148.026 C7.298,147.998 7.472,147.916 7.648,147.78 L7.648,147.78 L9.64,146.124 C9.624,146.356 9.612,146.586 9.604,146.814 C9.596,147.042 9.592,147.268 9.592,147.492 L9.592,147.492 L9.592,156.312 L6.232,156.312 L6.232,159 L16.192,159 Z M22.84,159 C23.272,159 23.658,158.92 23.998,158.76 C24.338,158.6 24.592,158.404 24.76,158.172 L24.76,158.172 L28.528,152.82 C29.104,152.02 29.564,151.168 29.908,150.264 C30.252,149.36 30.424,148.336 30.424,147.192 C30.424,146.328 30.286,145.538 30.01,144.822 C29.734,144.106 29.338,143.488 28.822,142.968 C28.306,142.448 27.676,142.044 26.932,141.756 C26.188,141.468 25.344,141.324 24.4,141.324 C23.472,141.324 22.632,141.478 21.88,141.786 C21.128,142.094 20.482,142.512 19.942,143.04 C19.402,143.568 18.986,144.184 18.694,144.888 C18.402,145.592 18.256,146.34 18.256,147.132 C18.256,147.996 18.4,148.744 18.688,149.376 C18.976,150.008 19.35,150.532 19.81,150.948 C20.27,151.364 20.784,151.674 21.352,151.878 C21.92,152.082 22.488,152.184 23.056,152.184 C23.992,152.184 24.828,151.988 25.564,151.596 C25.476,151.724 25.38,151.852 25.276,151.98 C25.172,152.108 25.064,152.24 24.952,152.376 L24.952,152.376 L19.408,159 L22.84,159 Z M24.4,149.472 C22.784,149.472 21.976,148.6 21.976,146.856 C21.976,146.488 22.03,146.146 22.138,145.83 C22.246,145.514 22.402,145.24 22.606,145.008 C22.81,144.776 23.058,144.594 23.35,144.462 C23.642,144.33 23.976,144.264 24.352,144.264 C24.72,144.264 25.06,144.32 25.372,144.432 C25.684,144.544 25.95,144.708 26.17,144.924 C26.39,145.14 26.562,145.41 26.686,145.734 C26.81,146.058 26.872,146.432 26.872,146.856 C26.872,147.648 26.658,148.282 26.23,148.758 C25.802,149.234 25.192,149.472 24.4,149.472 Z" id="19" fill="#1D262A"></path>
                    <path d="M69.588,159 L69.588,156.84 C69.588,156.48 69.472,156.19 69.24,155.97 C69.008,155.75 68.692,155.64 68.292,155.64 L68.292,155.64 L65.028,155.64 C64.66,155.64 64.26,155.676 63.828,155.748 C63.396,155.82 62.96,155.924 62.52,156.06 L62.52,156.06 L65.94,152.556 C66.404,152.084 66.842,151.618 67.254,151.158 C67.666,150.698 68.028,150.222 68.34,149.73 C68.652,149.238 68.898,148.72 69.078,148.176 C69.258,147.632 69.348,147.04 69.348,146.4 C69.348,145.656 69.218,144.974 68.958,144.354 C68.698,143.734 68.324,143.2 67.836,142.752 C67.348,142.304 66.758,141.954 66.066,141.702 C65.374,141.45 64.596,141.324 63.732,141.324 C62.932,141.324 62.184,141.43 61.488,141.642 C60.792,141.854 60.174,142.176 59.634,142.608 C59.094,143.04 58.642,143.58 58.278,144.228 C57.914,144.876 57.668,145.636 57.54,146.508 L57.54,146.508 L59.508,146.856 C60.012,146.936 60.4,146.904 60.672,146.76 C60.944,146.616 61.164,146.324 61.332,145.884 C61.476,145.452 61.738,145.09 62.118,144.798 C62.498,144.506 62.964,144.36 63.516,144.36 C64.196,144.36 64.702,144.546 65.034,144.918 C65.366,145.29 65.532,145.824 65.532,146.52 C65.532,146.944 65.48,147.346 65.376,147.726 C65.272,148.106 65.116,148.486 64.908,148.866 C64.7,149.246 64.436,149.632 64.116,150.024 C63.796,150.416 63.42,150.828 62.988,151.26 L62.988,151.26 L57.948,156.336 C57.708,156.552 57.54,156.792 57.444,157.056 C57.348,157.32 57.3,157.568 57.3,157.8 L57.3,157.8 L57.3,159 L69.588,159 Z M77.436,159.192 C78.364,159.192 79.226,159.012 80.022,158.652 C80.818,158.292 81.506,157.744 82.086,157.008 C82.666,156.272 83.12,155.344 83.448,154.224 C83.776,153.104 83.94,151.78 83.94,150.252 C83.94,148.724 83.776,147.4 83.448,146.28 C83.12,145.16 82.666,144.232 82.086,143.496 C81.506,142.76 80.818,142.214 80.022,141.858 C79.226,141.502 78.364,141.324 77.436,141.324 C76.508,141.324 75.65,141.502 74.862,141.858 C74.074,142.214 73.392,142.76 72.816,143.496 C72.24,144.232 71.79,145.16 71.466,146.28 C71.142,147.4 70.98,148.724 70.98,150.252 C70.98,151.78 71.142,153.104 71.466,154.224 C71.79,155.344 72.24,156.272 72.816,157.008 C73.392,157.744 74.074,158.292 74.862,158.652 C75.65,159.012 76.508,159.192 77.436,159.192 Z M77.436,156.204 C77.108,156.204 76.786,156.122 76.47,155.958 C76.154,155.794 75.874,155.49 75.63,155.046 C75.386,154.602 75.19,153.996 75.042,153.228 C74.894,152.46 74.82,151.468 74.82,150.252 C74.82,149.044 74.894,148.054 75.042,147.282 C75.19,146.51 75.386,145.904 75.63,145.464 C75.874,145.024 76.154,144.722 76.47,144.558 C76.786,144.394 77.108,144.312 77.436,144.312 C77.764,144.312 78.088,144.394 78.408,144.558 C78.728,144.722 79.014,145.024 79.266,145.464 C79.518,145.904 79.72,146.51 79.872,147.282 C80.024,148.054 80.1,149.044 80.1,150.252 C80.1,151.468 80.024,152.46 79.872,153.228 C79.72,153.996 79.518,154.602 79.266,155.046 C79.014,155.49 78.728,155.794 78.408,155.958 C78.088,156.122 77.764,156.204 77.436,156.204 Z" id="20" fill="#1D262A"></path>
                    <path d="M122.588,159 L122.588,156.84 C122.588,156.48 122.472,156.19 122.24,155.97 C122.008,155.75 121.692,155.64 121.292,155.64 L121.292,155.64 L118.028,155.64 C117.66,155.64 117.26,155.676 116.828,155.748 C116.396,155.82 115.96,155.924 115.52,156.06 L115.52,156.06 L118.94,152.556 C119.404,152.084 119.842,151.618 120.254,151.158 C120.666,150.698 121.028,150.222 121.34,149.73 C121.652,149.238 121.898,148.72 122.078,148.176 C122.258,147.632 122.348,147.04 122.348,146.4 C122.348,145.656 122.218,144.974 121.958,144.354 C121.698,143.734 121.324,143.2 120.836,142.752 C120.348,142.304 119.758,141.954 119.066,141.702 C118.374,141.45 117.596,141.324 116.732,141.324 C115.932,141.324 115.184,141.43 114.488,141.642 C113.792,141.854 113.174,142.176 112.634,142.608 C112.094,143.04 111.642,143.58 111.278,144.228 C110.914,144.876 110.668,145.636 110.54,146.508 L110.54,146.508 L112.508,146.856 C113.012,146.936 113.4,146.904 113.672,146.76 C113.944,146.616 114.164,146.324 114.332,145.884 C114.476,145.452 114.738,145.09 115.118,144.798 C115.498,144.506 115.964,144.36 116.516,144.36 C117.196,144.36 117.702,144.546 118.034,144.918 C118.366,145.29 118.532,145.824 118.532,146.52 C118.532,146.944 118.48,147.346 118.376,147.726 C118.272,148.106 118.116,148.486 117.908,148.866 C117.7,149.246 117.436,149.632 117.116,150.024 C116.796,150.416 116.42,150.828 115.988,151.26 L115.988,151.26 L110.948,156.336 C110.708,156.552 110.54,156.792 110.444,157.056 C110.348,157.32 110.3,157.568 110.3,157.8 L110.3,157.8 L110.3,159 L122.588,159 Z M136.112,159 L136.112,156.312 L133.232,156.312 L133.232,141.504 L130.16,141.504 L124.712,146.076 L125.888,147.636 C125.944,147.716 126.032,147.794 126.152,147.87 C126.272,147.946 126.408,147.998 126.56,148.026 C126.712,148.054 126.874,148.054 127.046,148.026 C127.218,147.998 127.392,147.916 127.568,147.78 L127.568,147.78 L129.56,146.124 C129.544,146.356 129.532,146.586 129.524,146.814 C129.516,147.042 129.512,147.268 129.512,147.492 L129.512,147.492 L129.512,156.312 L126.152,156.312 L126.152,159 L136.112,159 Z" id="21" fill="#1D262A"></path>
                    <path d="M175.588,159 L175.588,156.84 C175.588,156.48 175.472,156.19 175.24,155.97 C175.008,155.75 174.692,155.64 174.292,155.64 L174.292,155.64 L171.028,155.64 C170.66,155.64 170.26,155.676 169.828,155.748 C169.396,155.82 168.96,155.924 168.52,156.06 L168.52,156.06 L171.94,152.556 C172.404,152.084 172.842,151.618 173.254,151.158 C173.666,150.698 174.028,150.222 174.34,149.73 C174.652,149.238 174.898,148.72 175.078,148.176 C175.258,147.632 175.348,147.04 175.348,146.4 C175.348,145.656 175.218,144.974 174.958,144.354 C174.698,143.734 174.324,143.2 173.836,142.752 C173.348,142.304 172.758,141.954 172.066,141.702 C171.374,141.45 170.596,141.324 169.732,141.324 C168.932,141.324 168.184,141.43 167.488,141.642 C166.792,141.854 166.174,142.176 165.634,142.608 C165.094,143.04 164.642,143.58 164.278,144.228 C163.914,144.876 163.668,145.636 163.54,146.508 L163.54,146.508 L165.508,146.856 C166.012,146.936 166.4,146.904 166.672,146.76 C166.944,146.616 167.164,146.324 167.332,145.884 C167.476,145.452 167.738,145.09 168.118,144.798 C168.498,144.506 168.964,144.36 169.516,144.36 C170.196,144.36 170.702,144.546 171.034,144.918 C171.366,145.29 171.532,145.824 171.532,146.52 C171.532,146.944 171.48,147.346 171.376,147.726 C171.272,148.106 171.116,148.486 170.908,148.866 C170.7,149.246 170.436,149.632 170.116,150.024 C169.796,150.416 169.42,150.828 168.988,151.26 L168.988,151.26 L163.948,156.336 C163.708,156.552 163.54,156.792 163.444,157.056 C163.348,157.32 163.3,157.568 163.3,157.8 L163.3,157.8 L163.3,159 L175.588,159 Z M189.508,159 L189.508,156.84 C189.508,156.48 189.392,156.19 189.16,155.97 C188.928,155.75 188.612,155.64 188.212,155.64 L188.212,155.64 L184.948,155.64 C184.58,155.64 184.18,155.676 183.748,155.748 C183.316,155.82 182.88,155.924 182.44,156.06 L182.44,156.06 L185.86,152.556 C186.324,152.084 186.762,151.618 187.174,151.158 C187.586,150.698 187.948,150.222 188.26,149.73 C188.572,149.238 188.818,148.72 188.998,148.176 C189.178,147.632 189.268,147.04 189.268,146.4 C189.268,145.656 189.138,144.974 188.878,144.354 C188.618,143.734 188.244,143.2 187.756,142.752 C187.268,142.304 186.678,141.954 185.986,141.702 C185.294,141.45 184.516,141.324 183.652,141.324 C182.852,141.324 182.104,141.43 181.408,141.642 C180.712,141.854 180.094,142.176 179.554,142.608 C179.014,143.04 178.562,143.58 178.198,144.228 C177.834,144.876 177.588,145.636 177.46,146.508 L177.46,146.508 L179.428,146.856 C179.932,146.936 180.32,146.904 180.592,146.76 C180.864,146.616 181.084,146.324 181.252,145.884 C181.396,145.452 181.658,145.09 182.038,144.798 C182.418,144.506 182.884,144.36 183.436,144.36 C184.116,144.36 184.622,144.546 184.954,144.918 C185.286,145.29 185.452,145.824 185.452,146.52 C185.452,146.944 185.4,147.346 185.296,147.726 C185.192,148.106 185.036,148.486 184.828,148.866 C184.62,149.246 184.356,149.632 184.036,150.024 C183.716,150.416 183.34,150.828 182.908,151.26 L182.908,151.26 L177.868,156.336 C177.628,156.552 177.46,156.792 177.364,157.056 C177.268,157.32 177.22,157.568 177.22,157.8 L177.22,157.8 L177.22,159 L189.508,159 Z" id="22" fill="#1D262A"></path>
                    <path d="M281.588,159 L281.588,156.84 C281.588,156.48 281.472,156.19 281.24,155.97 C281.008,155.75 280.692,155.64 280.292,155.64 L280.292,155.64 L277.028,155.64 C276.66,155.64 276.26,155.676 275.828,155.748 C275.396,155.82 274.96,155.924 274.52,156.06 L274.52,156.06 L277.94,152.556 C278.404,152.084 278.842,151.618 279.254,151.158 C279.666,150.698 280.028,150.222 280.34,149.73 C280.652,149.238 280.898,148.72 281.078,148.176 C281.258,147.632 281.348,147.04 281.348,146.4 C281.348,145.656 281.218,144.974 280.958,144.354 C280.698,143.734 280.324,143.2 279.836,142.752 C279.348,142.304 278.758,141.954 278.066,141.702 C277.374,141.45 276.596,141.324 275.732,141.324 C274.932,141.324 274.184,141.43 273.488,141.642 C272.792,141.854 272.174,142.176 271.634,142.608 C271.094,143.04 270.642,143.58 270.278,144.228 C269.914,144.876 269.668,145.636 269.54,146.508 L269.54,146.508 L271.508,146.856 C272.012,146.936 272.4,146.904 272.672,146.76 C272.944,146.616 273.164,146.324 273.332,145.884 C273.476,145.452 273.738,145.09 274.118,144.798 C274.498,144.506 274.964,144.36 275.516,144.36 C276.196,144.36 276.702,144.546 277.034,144.918 C277.366,145.29 277.532,145.824 277.532,146.52 C277.532,146.944 277.48,147.346 277.376,147.726 C277.272,148.106 277.116,148.486 276.908,148.866 C276.7,149.246 276.436,149.632 276.116,150.024 C275.796,150.416 275.42,150.828 274.988,151.26 L274.988,151.26 L269.948,156.336 C269.708,156.552 269.54,156.792 269.444,157.056 C269.348,157.32 269.3,157.568 269.3,157.8 L269.3,157.8 L269.3,159 L281.588,159 Z M294.08,159 L294.08,154.98 L295.16,154.98 C295.392,154.98 295.57,154.912 295.694,154.776 C295.818,154.64 295.88,154.48 295.88,154.296 L295.88,154.296 L295.88,152.208 L294.08,152.208 L294.08,141.516 L290.528,141.516 L282.44,152.388 L282.824,154.224 C282.872,154.44 282.99,154.62 283.178,154.764 C283.366,154.908 283.576,154.98 283.808,154.98 L283.808,154.98 L290.84,154.98 L290.84,159 L294.08,159 Z M290.84,152.208 L286.34,152.208 L290.96,145.728 C290.92,146.08 290.89,146.418 290.87,146.742 C290.85,147.066 290.84,147.368 290.84,147.648 L290.84,147.648 L290.84,152.208 Z" id="24" fill="#1D262A"></path>
                    <path d="M228.588,159 L228.588,156.84 C228.588,156.48 228.472,156.19 228.24,155.97 C228.008,155.75 227.692,155.64 227.292,155.64 L227.292,155.64 L224.028,155.64 C223.66,155.64 223.26,155.676 222.828,155.748 C222.396,155.82 221.96,155.924 221.52,156.06 L221.52,156.06 L224.94,152.556 C225.404,152.084 225.842,151.618 226.254,151.158 C226.666,150.698 227.028,150.222 227.34,149.73 C227.652,149.238 227.898,148.72 228.078,148.176 C228.258,147.632 228.348,147.04 228.348,146.4 C228.348,145.656 228.218,144.974 227.958,144.354 C227.698,143.734 227.324,143.2 226.836,142.752 C226.348,142.304 225.758,141.954 225.066,141.702 C224.374,141.45 223.596,141.324 222.732,141.324 C221.932,141.324 221.184,141.43 220.488,141.642 C219.792,141.854 219.174,142.176 218.634,142.608 C218.094,143.04 217.642,143.58 217.278,144.228 C216.914,144.876 216.668,145.636 216.54,146.508 L216.54,146.508 L218.508,146.856 C219.012,146.936 219.4,146.904 219.672,146.76 C219.944,146.616 220.164,146.324 220.332,145.884 C220.476,145.452 220.738,145.09 221.118,144.798 C221.498,144.506 221.964,144.36 222.516,144.36 C223.196,144.36 223.702,144.546 224.034,144.918 C224.366,145.29 224.532,145.824 224.532,146.52 C224.532,146.944 224.48,147.346 224.376,147.726 C224.272,148.106 224.116,148.486 223.908,148.866 C223.7,149.246 223.436,149.632 223.116,150.024 C222.796,150.416 222.42,150.828 221.988,151.26 L221.988,151.26 L216.948,156.336 C216.708,156.552 216.54,156.792 216.444,157.056 C216.348,157.32 216.3,157.568 216.3,157.8 L216.3,157.8 L216.3,159 L228.588,159 Z M236.34,159.192 C237.148,159.192 237.924,159.078 238.668,158.85 C239.412,158.622 240.066,158.28 240.63,157.824 C241.194,157.368 241.644,156.796 241.98,156.108 C242.316,155.42 242.484,154.612 242.484,153.684 C242.484,151.724 241.516,150.404 239.58,149.724 C239.996,149.58 240.366,149.402 240.69,149.19 C241.014,148.978 241.286,148.718 241.506,148.41 C241.726,148.102 241.892,147.738 242.004,147.318 C242.116,146.898 242.172,146.412 242.172,145.86 C242.172,145.252 242.052,144.674 241.812,144.126 C241.572,143.578 241.22,143.096 240.756,142.68 C240.292,142.264 239.724,141.934 239.052,141.69 C238.38,141.446 237.612,141.324 236.748,141.324 C235.948,141.324 235.2,141.43 234.504,141.642 C233.808,141.854 233.19,142.176 232.65,142.608 C232.11,143.04 231.658,143.58 231.294,144.228 C230.93,144.876 230.684,145.636 230.556,146.508 L230.556,146.508 L232.524,146.856 C233.028,146.936 233.416,146.904 233.688,146.76 C233.96,146.616 234.18,146.324 234.348,145.884 C234.492,145.452 234.754,145.09 235.134,144.798 C235.514,144.506 235.98,144.36 236.532,144.36 C237.212,144.36 237.718,144.546 238.05,144.918 C238.382,145.29 238.548,145.82 238.548,146.508 C238.548,146.844 238.508,147.152 238.428,147.432 C238.348,147.712 238.186,147.95 237.942,148.146 C237.698,148.342 237.352,148.496 236.904,148.608 C236.456,148.72 235.868,148.776 235.14,148.776 L235.14,148.776 L235.14,151.344 C236.004,151.344 236.678,151.402 237.162,151.518 C237.646,151.634 238.008,151.8 238.248,152.016 C238.488,152.232 238.634,152.49 238.686,152.79 C238.738,153.09 238.764,153.428 238.764,153.804 C238.764,154.092 238.712,154.376 238.608,154.656 C238.504,154.936 238.35,155.186 238.146,155.406 C237.942,155.626 237.686,155.806 237.378,155.946 C237.07,156.086 236.708,156.156 236.292,156.156 C235.748,156.156 235.274,156.006 234.87,155.706 C234.466,155.406 234.084,154.924 233.724,154.26 C233.564,153.972 233.3,153.788 232.932,153.708 C232.564,153.628 232.164,153.672 231.732,153.84 L231.732,153.84 L230.076,154.512 C230.356,155.328 230.686,156.032 231.066,156.624 C231.446,157.216 231.888,157.702 232.392,158.082 C232.896,158.462 233.472,158.742 234.12,158.922 C234.768,159.102 235.508,159.192 236.34,159.192 Z" id="23" fill="#1D262A"></path>
                    <path d="M334.588,159 L334.588,156.84 C334.588,156.48 334.472,156.19 334.24,155.97 C334.008,155.75 333.692,155.64 333.292,155.64 L333.292,155.64 L330.028,155.64 C329.66,155.64 329.26,155.676 328.828,155.748 C328.396,155.82 327.96,155.924 327.52,156.06 L327.52,156.06 L330.94,152.556 C331.404,152.084 331.842,151.618 332.254,151.158 C332.666,150.698 333.028,150.222 333.34,149.73 C333.652,149.238 333.898,148.72 334.078,148.176 C334.258,147.632 334.348,147.04 334.348,146.4 C334.348,145.656 334.218,144.974 333.958,144.354 C333.698,143.734 333.324,143.2 332.836,142.752 C332.348,142.304 331.758,141.954 331.066,141.702 C330.374,141.45 329.596,141.324 328.732,141.324 C327.932,141.324 327.184,141.43 326.488,141.642 C325.792,141.854 325.174,142.176 324.634,142.608 C324.094,143.04 323.642,143.58 323.278,144.228 C322.914,144.876 322.668,145.636 322.54,146.508 L322.54,146.508 L324.508,146.856 C325.012,146.936 325.4,146.904 325.672,146.76 C325.944,146.616 326.164,146.324 326.332,145.884 C326.476,145.452 326.738,145.09 327.118,144.798 C327.498,144.506 327.964,144.36 328.516,144.36 C329.196,144.36 329.702,144.546 330.034,144.918 C330.366,145.29 330.532,145.824 330.532,146.52 C330.532,146.944 330.48,147.346 330.376,147.726 C330.272,148.106 330.116,148.486 329.908,148.866 C329.7,149.246 329.436,149.632 329.116,150.024 C328.796,150.416 328.42,150.828 327.988,151.26 L327.988,151.26 L322.948,156.336 C322.708,156.552 322.54,156.792 322.444,157.056 C322.348,157.32 322.3,157.568 322.3,157.8 L322.3,157.8 L322.3,159 L334.588,159 Z M341.632,159.192 C342.608,159.192 343.506,159.038 344.326,158.73 C345.146,158.422 345.852,157.988 346.444,157.428 C347.036,156.868 347.498,156.202 347.83,155.43 C348.162,154.658 348.328,153.804 348.328,152.868 C348.328,152.124 348.206,151.426 347.962,150.774 C347.718,150.122 347.356,149.554 346.876,149.07 C346.396,148.586 345.804,148.204 345.1,147.924 C344.396,147.644 343.584,147.504 342.664,147.504 C342.376,147.504 342.08,147.516 341.776,147.54 C341.472,147.564 341.156,147.608 340.828,147.672 L340.828,147.672 L341.32,144.78 L345.496,144.78 C345.888,144.78 346.224,144.738 346.504,144.654 C346.784,144.57 347.01,144.45 347.182,144.294 C347.354,144.138 347.48,143.956 347.56,143.748 C347.64,143.54 347.68,143.308 347.68,143.052 L347.68,143.052 L347.68,141.516 L338.728,141.516 L337.24,150.264 L339.544,150.888 C340.296,150.592 341.064,150.444 341.848,150.444 C342.728,150.444 343.408,150.666 343.888,151.11 C344.368,151.554 344.608,152.2 344.608,153.048 C344.608,153.48 344.558,153.886 344.458,154.266 C344.358,154.646 344.198,154.978 343.978,155.262 C343.758,155.546 343.472,155.77 343.12,155.934 C342.768,156.098 342.344,156.18 341.848,156.18 C341.352,156.18 340.936,156.116 340.6,155.988 C340.264,155.86 339.97,155.718 339.718,155.562 C339.466,155.406 339.234,155.262 339.022,155.13 C338.81,154.998 338.584,154.932 338.344,154.932 C338.16,154.932 337.988,154.974 337.828,155.058 C337.668,155.142 337.528,155.264 337.408,155.424 L337.408,155.424 L336.256,156.96 C336.568,157.264 336.916,157.55 337.3,157.818 C337.684,158.086 338.102,158.322 338.554,158.526 C339.006,158.73 339.49,158.892 340.006,159.012 C340.522,159.132 341.064,159.192 341.632,159.192 Z" id="25" fill="#FFBE52"></path>
                    <path d="M17.588,204 L17.588,201.84 C17.588,201.48 17.472,201.19 17.24,200.97 C17.008,200.75 16.692,200.64 16.292,200.64 L16.292,200.64 L13.028,200.64 C12.66,200.64 12.26,200.676 11.828,200.748 C11.396,200.82 10.96,200.924 10.52,201.06 L10.52,201.06 L13.94,197.556 C14.404,197.084 14.842,196.618 15.254,196.158 C15.666,195.698 16.028,195.222 16.34,194.73 C16.652,194.238 16.898,193.72 17.078,193.176 C17.258,192.632 17.348,192.04 17.348,191.4 C17.348,190.656 17.218,189.974 16.958,189.354 C16.698,188.734 16.324,188.2 15.836,187.752 C15.348,187.304 14.758,186.954 14.066,186.702 C13.374,186.45 12.596,186.324 11.732,186.324 C10.932,186.324 10.184,186.43 9.488,186.642 C8.792,186.854 8.174,187.176 7.634,187.608 C7.094,188.04 6.642,188.58 6.278,189.228 C5.914,189.876 5.668,190.636 5.54,191.508 L5.54,191.508 L7.508,191.856 C8.012,191.936 8.4,191.904 8.672,191.76 C8.944,191.616 9.164,191.324 9.332,190.884 C9.476,190.452 9.738,190.09 10.118,189.798 C10.498,189.506 10.964,189.36 11.516,189.36 C12.196,189.36 12.702,189.546 13.034,189.918 C13.366,190.29 13.532,190.824 13.532,191.52 C13.532,191.944 13.48,192.346 13.376,192.726 C13.272,193.106 13.116,193.486 12.908,193.866 C12.7,194.246 12.436,194.632 12.116,195.024 C11.796,195.416 11.42,195.828 10.988,196.26 L10.988,196.26 L5.948,201.336 C5.708,201.552 5.54,201.792 5.444,202.056 C5.348,202.32 5.3,202.568 5.3,202.8 L5.3,202.8 L5.3,204 L17.588,204 Z M25.508,204.192 C26.46,204.192 27.328,204.032 28.112,203.712 C28.896,203.392 29.566,202.958 30.122,202.41 C30.678,201.862 31.108,201.222 31.412,200.49 C31.716,199.758 31.868,198.984 31.868,198.168 C31.868,197.272 31.718,196.494 31.418,195.834 C31.118,195.174 30.724,194.628 30.236,194.196 C29.748,193.764 29.196,193.444 28.58,193.236 C27.964,193.028 27.34,192.924 26.708,192.924 C26.02,192.924 25.396,193.028 24.836,193.236 L24.836,193.236 L25.292,192.708 L30.476,186.516 L27.164,186.516 C26.716,186.516 26.318,186.6 25.97,186.768 C25.622,186.936 25.356,187.136 25.172,187.368 L25.172,187.368 L21.236,192.684 C19.908,194.46 19.244,196.208 19.244,197.928 C19.244,198.848 19.386,199.692 19.67,200.46 C19.954,201.228 20.366,201.888 20.906,202.44 C21.446,202.992 22.104,203.422 22.88,203.73 C23.656,204.038 24.532,204.192 25.508,204.192 Z M25.436,201.252 C24.988,201.252 24.6,201.186 24.272,201.054 C23.944,200.922 23.672,200.732 23.456,200.484 C23.24,200.236 23.08,199.94 22.976,199.596 C22.872,199.252 22.82,198.864 22.82,198.432 C22.82,198 22.884,197.612 23.012,197.268 C23.14,196.924 23.318,196.628 23.546,196.38 C23.774,196.132 24.044,195.942 24.356,195.81 C24.668,195.678 25.012,195.612 25.388,195.612 C25.804,195.612 26.182,195.676 26.522,195.804 C26.862,195.932 27.152,196.116 27.392,196.356 C27.632,196.596 27.818,196.892 27.95,197.244 C28.082,197.596 28.148,197.996 28.148,198.444 C28.148,198.844 28.078,199.214 27.938,199.554 C27.798,199.894 27.608,200.19 27.368,200.442 C27.128,200.694 26.842,200.892 26.51,201.036 C26.178,201.18 25.82,201.252 25.436,201.252 Z" id="26" fill="#1D262A"></path>
                    <path d="M70.588,204 L70.588,201.84 C70.588,201.48 70.472,201.19 70.24,200.97 C70.008,200.75 69.692,200.64 69.292,200.64 L69.292,200.64 L66.028,200.64 C65.66,200.64 65.26,200.676 64.828,200.748 C64.396,200.82 63.96,200.924 63.52,201.06 L63.52,201.06 L66.94,197.556 C67.404,197.084 67.842,196.618 68.254,196.158 C68.666,195.698 69.028,195.222 69.34,194.73 C69.652,194.238 69.898,193.72 70.078,193.176 C70.258,192.632 70.348,192.04 70.348,191.4 C70.348,190.656 70.218,189.974 69.958,189.354 C69.698,188.734 69.324,188.2 68.836,187.752 C68.348,187.304 67.758,186.954 67.066,186.702 C66.374,186.45 65.596,186.324 64.732,186.324 C63.932,186.324 63.184,186.43 62.488,186.642 C61.792,186.854 61.174,187.176 60.634,187.608 C60.094,188.04 59.642,188.58 59.278,189.228 C58.914,189.876 58.668,190.636 58.54,191.508 L58.54,191.508 L60.508,191.856 C61.012,191.936 61.4,191.904 61.672,191.76 C61.944,191.616 62.164,191.324 62.332,190.884 C62.476,190.452 62.738,190.09 63.118,189.798 C63.498,189.506 63.964,189.36 64.516,189.36 C65.196,189.36 65.702,189.546 66.034,189.918 C66.366,190.29 66.532,190.824 66.532,191.52 C66.532,191.944 66.48,192.346 66.376,192.726 C66.272,193.106 66.116,193.486 65.908,193.866 C65.7,194.246 65.436,194.632 65.116,195.024 C64.796,195.416 64.42,195.828 63.988,196.26 L63.988,196.26 L58.948,201.336 C58.708,201.552 58.54,201.792 58.444,202.056 C58.348,202.32 58.3,202.568 58.3,202.8 L58.3,202.8 L58.3,204 L70.588,204 Z M76.264,204 C76.776,204 77.186,203.88 77.494,203.64 C77.802,203.4 78.04,203.112 78.208,202.776 L78.208,202.776 L84.28,189.912 C84.376,189.72 84.476,189.482 84.58,189.198 C84.684,188.914 84.736,188.54 84.736,188.076 L84.736,188.076 L84.736,186.516 L72.448,186.516 L72.448,188.964 C72.448,189.068 72.472,189.17 72.52,189.27 C72.568,189.37 72.63,189.458 72.706,189.534 C72.782,189.61 72.87,189.67 72.97,189.714 C73.07,189.758 73.176,189.78 73.288,189.78 L73.288,189.78 L80.98,189.78 C80.748,190.028 80.538,190.29 80.35,190.566 C80.162,190.842 79.976,191.148 79.792,191.484 L79.792,191.484 L73.552,204 L76.264,204 Z" id="27" fill="#1D262A"></path>
                    <path d="M123.588,204 L123.588,201.84 C123.588,201.48 123.472,201.19 123.24,200.97 C123.008,200.75 122.692,200.64 122.292,200.64 L122.292,200.64 L119.028,200.64 C118.66,200.64 118.26,200.676 117.828,200.748 C117.396,200.82 116.96,200.924 116.52,201.06 L116.52,201.06 L119.94,197.556 C120.404,197.084 120.842,196.618 121.254,196.158 C121.666,195.698 122.028,195.222 122.34,194.73 C122.652,194.238 122.898,193.72 123.078,193.176 C123.258,192.632 123.348,192.04 123.348,191.4 C123.348,190.656 123.218,189.974 122.958,189.354 C122.698,188.734 122.324,188.2 121.836,187.752 C121.348,187.304 120.758,186.954 120.066,186.702 C119.374,186.45 118.596,186.324 117.732,186.324 C116.932,186.324 116.184,186.43 115.488,186.642 C114.792,186.854 114.174,187.176 113.634,187.608 C113.094,188.04 112.642,188.58 112.278,189.228 C111.914,189.876 111.668,190.636 111.54,191.508 L111.54,191.508 L113.508,191.856 C114.012,191.936 114.4,191.904 114.672,191.76 C114.944,191.616 115.164,191.324 115.332,190.884 C115.476,190.452 115.738,190.09 116.118,189.798 C116.498,189.506 116.964,189.36 117.516,189.36 C118.196,189.36 118.702,189.546 119.034,189.918 C119.366,190.29 119.532,190.824 119.532,191.52 C119.532,191.944 119.48,192.346 119.376,192.726 C119.272,193.106 119.116,193.486 118.908,193.866 C118.7,194.246 118.436,194.632 118.116,195.024 C117.796,195.416 117.42,195.828 116.988,196.26 L116.988,196.26 L111.948,201.336 C111.708,201.552 111.54,201.792 111.444,202.056 C111.348,202.32 111.3,202.568 111.3,202.8 L111.3,202.8 L111.3,204 L123.588,204 Z M131.46,204.192 C132.388,204.192 133.236,204.068 134.004,203.82 C134.772,203.572 135.43,203.222 135.978,202.77 C136.526,202.318 136.95,201.772 137.25,201.132 C137.55,200.492 137.7,199.78 137.7,198.996 C137.7,198.524 137.644,198.078 137.532,197.658 C137.42,197.238 137.246,196.852 137.01,196.5 C136.774,196.148 136.47,195.836 136.098,195.564 C135.726,195.292 135.28,195.064 134.76,194.88 C135.552,194.52 136.144,194.022 136.536,193.386 C136.928,192.75 137.124,191.984 137.124,191.088 C137.124,190.408 136.984,189.778 136.704,189.198 C136.424,188.618 136.032,188.116 135.528,187.692 C135.024,187.268 134.426,186.934 133.734,186.69 C133.042,186.446 132.284,186.324 131.46,186.324 C130.636,186.324 129.878,186.446 129.186,186.69 C128.494,186.934 127.896,187.268 127.392,187.692 C126.888,188.116 126.496,188.618 126.216,189.198 C125.936,189.778 125.796,190.408 125.796,191.088 C125.796,191.984 125.992,192.75 126.384,193.386 C126.776,194.022 127.368,194.52 128.16,194.88 C127.64,195.064 127.194,195.292 126.822,195.564 C126.45,195.836 126.146,196.148 125.91,196.5 C125.674,196.852 125.5,197.238 125.388,197.658 C125.276,198.078 125.22,198.524 125.22,198.996 C125.22,199.78 125.37,200.492 125.67,201.132 C125.97,201.772 126.394,202.318 126.942,202.77 C127.49,203.222 128.148,203.572 128.916,203.82 C129.684,204.068 130.532,204.192 131.46,204.192 Z M131.46,193.56 C131.044,193.56 130.704,193.492 130.44,193.356 C130.176,193.22 129.968,193.04 129.816,192.816 C129.664,192.592 129.56,192.336 129.504,192.048 C129.448,191.76 129.42,191.464 129.42,191.16 C129.42,190.888 129.456,190.624 129.528,190.368 C129.6,190.112 129.718,189.886 129.882,189.69 C130.046,189.494 130.256,189.336 130.512,189.216 C130.768,189.096 131.084,189.036 131.46,189.036 C131.828,189.036 132.142,189.096 132.402,189.216 C132.662,189.336 132.874,189.494 133.038,189.69 C133.202,189.886 133.32,190.112 133.392,190.368 C133.464,190.624 133.5,190.888 133.5,191.16 C133.5,191.464 133.472,191.76 133.416,192.048 C133.36,192.336 133.256,192.592 133.104,192.816 C132.952,193.04 132.744,193.22 132.48,193.356 C132.216,193.492 131.876,193.56 131.46,193.56 Z M131.46,201.384 C131.036,201.384 130.674,201.32 130.374,201.192 C130.074,201.064 129.826,200.89 129.63,200.67 C129.434,200.45 129.29,200.19 129.198,199.89 C129.106,199.59 129.06,199.268 129.06,198.924 C129.06,198.548 129.1,198.204 129.18,197.892 C129.26,197.58 129.392,197.314 129.576,197.094 C129.76,196.874 130.006,196.702 130.314,196.578 C130.622,196.454 131.004,196.392 131.46,196.392 C131.916,196.392 132.298,196.454 132.606,196.578 C132.914,196.702 133.16,196.874 133.344,197.094 C133.528,197.314 133.66,197.58 133.74,197.892 C133.82,198.204 133.86,198.548 133.86,198.924 C133.86,199.268 133.814,199.59 133.722,199.89 C133.63,200.19 133.486,200.45 133.29,200.67 C133.094,200.89 132.844,201.064 132.54,201.192 C132.236,201.32 131.876,201.384 131.46,201.384 Z" id="28" fill="#1D262A"></path>
                    <path d="M176.588,204 L176.588,201.84 C176.588,201.48 176.472,201.19 176.24,200.97 C176.008,200.75 175.692,200.64 175.292,200.64 L175.292,200.64 L172.028,200.64 C171.66,200.64 171.26,200.676 170.828,200.748 C170.396,200.82 169.96,200.924 169.52,201.06 L169.52,201.06 L172.94,197.556 C173.404,197.084 173.842,196.618 174.254,196.158 C174.666,195.698 175.028,195.222 175.34,194.73 C175.652,194.238 175.898,193.72 176.078,193.176 C176.258,192.632 176.348,192.04 176.348,191.4 C176.348,190.656 176.218,189.974 175.958,189.354 C175.698,188.734 175.324,188.2 174.836,187.752 C174.348,187.304 173.758,186.954 173.066,186.702 C172.374,186.45 171.596,186.324 170.732,186.324 C169.932,186.324 169.184,186.43 168.488,186.642 C167.792,186.854 167.174,187.176 166.634,187.608 C166.094,188.04 165.642,188.58 165.278,189.228 C164.914,189.876 164.668,190.636 164.54,191.508 L164.54,191.508 L166.508,191.856 C167.012,191.936 167.4,191.904 167.672,191.76 C167.944,191.616 168.164,191.324 168.332,190.884 C168.476,190.452 168.738,190.09 169.118,189.798 C169.498,189.506 169.964,189.36 170.516,189.36 C171.196,189.36 171.702,189.546 172.034,189.918 C172.366,190.29 172.532,190.824 172.532,191.52 C172.532,191.944 172.48,192.346 172.376,192.726 C172.272,193.106 172.116,193.486 171.908,193.866 C171.7,194.246 171.436,194.632 171.116,195.024 C170.796,195.416 170.42,195.828 169.988,196.26 L169.988,196.26 L164.948,201.336 C164.708,201.552 164.54,201.792 164.444,202.056 C164.348,202.32 164.3,202.568 164.3,202.8 L164.3,202.8 L164.3,204 L176.588,204 Z M182.84,204 C183.272,204 183.658,203.92 183.998,203.76 C184.338,203.6 184.592,203.404 184.76,203.172 L184.76,203.172 L188.528,197.82 C189.104,197.02 189.564,196.168 189.908,195.264 C190.252,194.36 190.424,193.336 190.424,192.192 C190.424,191.328 190.286,190.538 190.01,189.822 C189.734,189.106 189.338,188.488 188.822,187.968 C188.306,187.448 187.676,187.044 186.932,186.756 C186.188,186.468 185.344,186.324 184.4,186.324 C183.472,186.324 182.632,186.478 181.88,186.786 C181.128,187.094 180.482,187.512 179.942,188.04 C179.402,188.568 178.986,189.184 178.694,189.888 C178.402,190.592 178.256,191.34 178.256,192.132 C178.256,192.996 178.4,193.744 178.688,194.376 C178.976,195.008 179.35,195.532 179.81,195.948 C180.27,196.364 180.784,196.674 181.352,196.878 C181.92,197.082 182.488,197.184 183.056,197.184 C183.992,197.184 184.828,196.988 185.564,196.596 C185.476,196.724 185.38,196.852 185.276,196.98 C185.172,197.108 185.064,197.24 184.952,197.376 L184.952,197.376 L179.408,204 L182.84,204 Z M184.4,194.472 C182.784,194.472 181.976,193.6 181.976,191.856 C181.976,191.488 182.03,191.146 182.138,190.83 C182.246,190.514 182.402,190.24 182.606,190.008 C182.81,189.776 183.058,189.594 183.35,189.462 C183.642,189.33 183.976,189.264 184.352,189.264 C184.72,189.264 185.06,189.32 185.372,189.432 C185.684,189.544 185.95,189.708 186.17,189.924 C186.39,190.14 186.562,190.41 186.686,190.734 C186.81,191.058 186.872,191.432 186.872,191.856 C186.872,192.648 186.658,193.282 186.23,193.758 C185.802,194.234 185.192,194.472 184.4,194.472 Z" id="29" fill="#1D262A"></path>
                    <path d="M276.42,204.192 C277.228,204.192 278.004,204.078 278.748,203.85 C279.492,203.622 280.146,203.28 280.71,202.824 C281.274,202.368 281.724,201.796 282.06,201.108 C282.396,200.42 282.564,199.612 282.564,198.684 C282.564,196.724 281.596,195.404 279.66,194.724 C280.076,194.58 280.446,194.402 280.77,194.19 C281.094,193.978 281.366,193.718 281.586,193.41 C281.806,193.102 281.972,192.738 282.084,192.318 C282.196,191.898 282.252,191.412 282.252,190.86 C282.252,190.252 282.132,189.674 281.892,189.126 C281.652,188.578 281.3,188.096 280.836,187.68 C280.372,187.264 279.804,186.934 279.132,186.69 C278.46,186.446 277.692,186.324 276.828,186.324 C276.028,186.324 275.28,186.43 274.584,186.642 C273.888,186.854 273.27,187.176 272.73,187.608 C272.19,188.04 271.738,188.58 271.374,189.228 C271.01,189.876 270.764,190.636 270.636,191.508 L270.636,191.508 L272.604,191.856 C273.108,191.936 273.496,191.904 273.768,191.76 C274.04,191.616 274.26,191.324 274.428,190.884 C274.572,190.452 274.834,190.09 275.214,189.798 C275.594,189.506 276.06,189.36 276.612,189.36 C277.292,189.36 277.798,189.546 278.13,189.918 C278.462,190.29 278.628,190.82 278.628,191.508 C278.628,191.844 278.588,192.152 278.508,192.432 C278.428,192.712 278.266,192.95 278.022,193.146 C277.778,193.342 277.432,193.496 276.984,193.608 C276.536,193.72 275.948,193.776 275.22,193.776 L275.22,193.776 L275.22,196.344 C276.084,196.344 276.758,196.402 277.242,196.518 C277.726,196.634 278.088,196.8 278.328,197.016 C278.568,197.232 278.714,197.49 278.766,197.79 C278.818,198.09 278.844,198.428 278.844,198.804 C278.844,199.092 278.792,199.376 278.688,199.656 C278.584,199.936 278.43,200.186 278.226,200.406 C278.022,200.626 277.766,200.806 277.458,200.946 C277.15,201.086 276.788,201.156 276.372,201.156 C275.828,201.156 275.354,201.006 274.95,200.706 C274.546,200.406 274.164,199.924 273.804,199.26 C273.644,198.972 273.38,198.788 273.012,198.708 C272.644,198.628 272.244,198.672 271.812,198.84 L271.812,198.84 L270.156,199.512 C270.436,200.328 270.766,201.032 271.146,201.624 C271.526,202.216 271.968,202.702 272.472,203.082 C272.976,203.462 273.552,203.742 274.2,203.922 C274.848,204.102 275.588,204.192 276.42,204.192 Z M296.112,204 L296.112,201.312 L293.232,201.312 L293.232,186.504 L290.16,186.504 L284.712,191.076 L285.888,192.636 C285.944,192.716 286.032,192.794 286.152,192.87 C286.272,192.946 286.408,192.998 286.56,193.026 C286.712,193.054 286.874,193.054 287.046,193.026 C287.218,192.998 287.392,192.916 287.568,192.78 L287.568,192.78 L289.56,191.124 C289.544,191.356 289.532,191.586 289.524,191.814 C289.516,192.042 289.512,192.268 289.512,192.492 L289.512,192.492 L289.512,201.312 L286.152,201.312 L286.152,204 L296.112,204 Z" id="31" fill="#1D262A"></path>
                    <path d="M223.42,204.192 C224.228,204.192 225.004,204.078 225.748,203.85 C226.492,203.622 227.146,203.28 227.71,202.824 C228.274,202.368 228.724,201.796 229.06,201.108 C229.396,200.42 229.564,199.612 229.564,198.684 C229.564,196.724 228.596,195.404 226.66,194.724 C227.076,194.58 227.446,194.402 227.77,194.19 C228.094,193.978 228.366,193.718 228.586,193.41 C228.806,193.102 228.972,192.738 229.084,192.318 C229.196,191.898 229.252,191.412 229.252,190.86 C229.252,190.252 229.132,189.674 228.892,189.126 C228.652,188.578 228.3,188.096 227.836,187.68 C227.372,187.264 226.804,186.934 226.132,186.69 C225.46,186.446 224.692,186.324 223.828,186.324 C223.028,186.324 222.28,186.43 221.584,186.642 C220.888,186.854 220.27,187.176 219.73,187.608 C219.19,188.04 218.738,188.58 218.374,189.228 C218.01,189.876 217.764,190.636 217.636,191.508 L217.636,191.508 L219.604,191.856 C220.108,191.936 220.496,191.904 220.768,191.76 C221.04,191.616 221.26,191.324 221.428,190.884 C221.572,190.452 221.834,190.09 222.214,189.798 C222.594,189.506 223.06,189.36 223.612,189.36 C224.292,189.36 224.798,189.546 225.13,189.918 C225.462,190.29 225.628,190.82 225.628,191.508 C225.628,191.844 225.588,192.152 225.508,192.432 C225.428,192.712 225.266,192.95 225.022,193.146 C224.778,193.342 224.432,193.496 223.984,193.608 C223.536,193.72 222.948,193.776 222.22,193.776 L222.22,193.776 L222.22,196.344 C223.084,196.344 223.758,196.402 224.242,196.518 C224.726,196.634 225.088,196.8 225.328,197.016 C225.568,197.232 225.714,197.49 225.766,197.79 C225.818,198.09 225.844,198.428 225.844,198.804 C225.844,199.092 225.792,199.376 225.688,199.656 C225.584,199.936 225.43,200.186 225.226,200.406 C225.022,200.626 224.766,200.806 224.458,200.946 C224.15,201.086 223.788,201.156 223.372,201.156 C222.828,201.156 222.354,201.006 221.95,200.706 C221.546,200.406 221.164,199.924 220.804,199.26 C220.644,198.972 220.38,198.788 220.012,198.708 C219.644,198.628 219.244,198.672 218.812,198.84 L218.812,198.84 L217.156,199.512 C217.436,200.328 217.766,201.032 218.146,201.624 C218.526,202.216 218.968,202.702 219.472,203.082 C219.976,203.462 220.552,203.742 221.2,203.922 C221.848,204.102 222.588,204.192 223.42,204.192 Z M237.436,204.192 C238.364,204.192 239.226,204.012 240.022,203.652 C240.818,203.292 241.506,202.744 242.086,202.008 C242.666,201.272 243.12,200.344 243.448,199.224 C243.776,198.104 243.94,196.78 243.94,195.252 C243.94,193.724 243.776,192.4 243.448,191.28 C243.12,190.16 242.666,189.232 242.086,188.496 C241.506,187.76 240.818,187.214 240.022,186.858 C239.226,186.502 238.364,186.324 237.436,186.324 C236.508,186.324 235.65,186.502 234.862,186.858 C234.074,187.214 233.392,187.76 232.816,188.496 C232.24,189.232 231.79,190.16 231.466,191.28 C231.142,192.4 230.98,193.724 230.98,195.252 C230.98,196.78 231.142,198.104 231.466,199.224 C231.79,200.344 232.24,201.272 232.816,202.008 C233.392,202.744 234.074,203.292 234.862,203.652 C235.65,204.012 236.508,204.192 237.436,204.192 Z M237.436,201.204 C237.108,201.204 236.786,201.122 236.47,200.958 C236.154,200.794 235.874,200.49 235.63,200.046 C235.386,199.602 235.19,198.996 235.042,198.228 C234.894,197.46 234.82,196.468 234.82,195.252 C234.82,194.044 234.894,193.054 235.042,192.282 C235.19,191.51 235.386,190.904 235.63,190.464 C235.874,190.024 236.154,189.722 236.47,189.558 C236.786,189.394 237.108,189.312 237.436,189.312 C237.764,189.312 238.088,189.394 238.408,189.558 C238.728,189.722 239.014,190.024 239.266,190.464 C239.518,190.904 239.72,191.51 239.872,192.282 C240.024,193.054 240.1,194.044 240.1,195.252 C240.1,196.468 240.024,197.46 239.872,198.228 C239.72,198.996 239.518,199.602 239.266,200.046 C239.014,200.49 238.728,200.794 238.408,200.958 C238.088,201.122 237.764,201.204 237.436,201.204 Z" id="30" fill="#1D262A"></path>
                    <path d="M342.152,204 L342.152,201.312 L339.272,201.312 L339.272,186.504 L336.2,186.504 L330.752,191.076 L331.928,192.636 C331.984,192.716 332.072,192.794 332.192,192.87 C332.312,192.946 332.448,192.998 332.6,193.026 C332.752,193.054 332.914,193.054 333.086,193.026 C333.258,192.998 333.432,192.916 333.608,192.78 L333.608,192.78 L335.6,191.124 C335.584,191.356 335.572,191.586 335.564,191.814 C335.556,192.042 335.552,192.268 335.552,192.492 L335.552,192.492 L335.552,201.312 L332.192,201.312 L332.192,204 L342.152,204 Z" id="1" fill-opacity="0.25" fill="#000000"></path>
                </g>
            </g>
        </g>
    </g>
</svg>