<?xml version="1.0" encoding="UTF-8" standalone="no"?><!DOCTYPE svg PUBLIC "-//W3C//DTD SVG 1.1//EN" "http://www.w3.org/Graphics/SVG/1.1/DTD/svg11.dtd"><svg width="100%" height="100%" viewBox="0 0 4818 5550" version="1.1" xmlns="http://www.w3.org/2000/svg" xmlns:xlink="http://www.w3.org/1999/xlink" xml:space="preserve" xmlns:serif="http://www.serif.com/" style="fill-rule:evenodd;clip-rule:evenodd;stroke-linecap:round;stroke-linejoin:round;stroke-miterlimit:1.5;"><g><g><path d="M4813.48,1392.48l-2404.57,-1388.13l-2404.57,1388.13l-0,2738.14l2404.57,1415l2404.57,-1415l0,-2738.14Z" style="fill:#fff;stroke:#000;stroke-width:8.69px;"/></g></g><g><g><path d="M4500.44,1572.45l-2091.54,-1207.42l-2091.54,1207.42l0,2381.69l2091.54,1230.8l2091.54,-1230.8l-0,-2381.69Z"/></g></g><g><g><path d="M460.06,3158.51c-0,-27.593 22.392,-49.995 50.005,-49.995l0.282,-0c27.587,-0 49.98,22.402 49.98,49.995c-0,27.594 -22.393,49.996 -49.98,49.996l-0.282,-0c-27.613,-0 -50.005,-22.402 -50.005,-49.996Z" style="fill:#8970ff;"/></g></g><g><g><path d="M614.352,3158.51c-0,-27.593 22.392,-49.995 50.005,-49.995l0.282,-0c27.587,-0 49.979,22.402 49.979,49.995c0,27.594 -22.392,49.996 -49.979,49.996l-0.282,-0c-27.613,-0 -50.005,-22.402 -50.005,-49.996Z" style="fill:#8970ff;"/></g></g><g><g><path d="M2466.1,3158.51c-0,-27.593 22.392,-49.995 50.005,-49.995l0.282,-0c27.587,-0 49.979,22.402 49.979,49.995c0,27.594 -22.392,49.996 -49.979,49.996l-0.282,-0c-27.613,-0 -50.005,-22.402 -50.005,-49.996Z" style="fill:#8970ff;"/></g></g><g><g><path d="M768.685,3019.22c-0,-27.672 22.469,-50.14 50.133,-50.14c27.69,-0 50.134,22.468 50.134,50.14l-0,139.16c-0,27.672 -22.444,50.14 -50.134,50.14c-27.664,0 -50.133,-22.468 -50.133,-50.14l-0,-139.16Z" style="fill:#8970ff;"/></g></g><g><g><path d="M922.977,2893.91c-0,-27.672 22.469,-50.14 50.133,-50.14c27.69,0 50.133,22.468 50.133,50.14l0,264.459c0,27.672 -22.443,50.14 -50.133,50.14c-27.664,-0 -50.133,-22.468 -50.133,-50.14l-0,-264.459Z" style="fill:#8970ff;"/></g></g><g><g><path d="M1077.31,2313.29c-0,-27.666 22.469,-50.148 50.133,-50.148c27.69,-0 50.134,22.482 50.134,50.148l-0,845.081c-0,27.666 -22.444,50.148 -50.134,50.148c-27.664,0 -50.133,-22.482 -50.133,-50.148l-0,-845.081Z" style="fill:#8970ff;"/></g></g><g><g><path d="M1231.6,1530.17c-0,-27.631 22.469,-50.124 50.133,-50.124c27.69,0 50.133,22.493 50.133,50.124l0,1628.11c0,27.688 -22.443,50.181 -50.133,50.181c-27.664,0 -50.133,-22.493 -50.133,-50.181l-0,-1628.11Z" style="fill:#8970ff;"/></g></g><g><g><path d="M1385.93,1126.01c-0,-27.683 22.469,-50.153 50.133,-50.153c27.69,-0 50.134,22.47 50.134,50.153l-0,2032.34c-0,27.683 -22.444,50.154 -50.134,50.154c-27.664,-0 -50.133,-22.471 -50.133,-50.154l-0,-2032.34Z" style="fill:#8970ff;"/></g></g><g><g><path d="M1540.23,1126.01c-0,-27.683 22.469,-50.153 50.133,-50.153c27.69,-0 50.133,22.47 50.133,50.153l0,2032.34c0,27.683 -22.443,50.154 -50.133,50.154c-27.664,-0 -50.133,-22.471 -50.133,-50.154l-0,-2032.34Z" style="fill:#8970ff;"/></g></g><g><g><path d="M1694.56,1530.17c-0,-27.631 22.469,-50.124 50.133,-50.124c27.69,0 50.134,22.493 50.134,50.124l-0,1628.11c-0,27.688 -22.444,50.181 -50.134,50.181c-27.664,0 -50.133,-22.493 -50.133,-50.181l-0,-1628.11Z" style="fill:#8970ff;"/></g></g><g><g><path d="M1848.85,2317.13c-0,-27.677 22.469,-50.13 50.133,-50.13c27.69,-0 50.133,22.453 50.133,50.13l0,841.235c0,27.677 -22.443,50.161 -50.133,50.161c-27.664,-0 -50.133,-22.484 -50.133,-50.161l-0,-841.235Z" style="fill:#8970ff;"/></g></g><g><g><path d="M2003.18,2912.79c-0,-27.67 22.469,-50.141 50.133,-50.141c27.69,-0 50.134,22.471 50.134,50.141l-0,245.6c-0,27.67 -22.444,50.142 -50.134,50.142c-27.664,-0 -50.133,-22.472 -50.133,-50.142l-0,-245.6Z" style="fill:#8970ff;"/></g></g><g><g><path d="M2311.81,3018.28c-0,-27.671 22.469,-50.142 50.133,-50.142c27.69,0 50.134,22.471 50.134,50.142l-0,140.111c-0,27.671 -22.444,50.141 -50.134,50.141c-27.664,0 -50.133,-22.47 -50.133,-50.141l-0,-140.111Z" style="fill:#8970ff;"/></g></g><g><g><path d="M2157.48,3018.28c-0,-27.671 22.469,-50.142 50.133,-50.142c27.69,0 50.133,22.471 50.133,50.142l0,140.111c0,27.671 -22.443,50.141 -50.133,50.141c-27.664,0 -50.133,-22.47 -50.133,-50.141l-0,-140.111Z" style="fill:#8970ff;"/></g></g><g><g><path d="M2630.18,3158.51c-0,-27.593 22.392,-49.995 50.005,-49.995l0.282,-0c27.587,-0 49.98,22.402 49.98,49.995c-0,27.594 -22.393,49.996 -49.98,49.996l-0.282,-0c-27.613,-0 -50.005,-22.402 -50.005,-49.996Z" style="fill:#ffa70b;"/></g></g><g><g><path d="M4312.64,3158.51c0,-27.593 22.393,-49.995 50.006,-49.995l0.281,-0c27.588,-0 49.98,22.402 49.98,49.995c0,27.594 -22.392,49.996 -49.98,49.996l-0.281,-0c-27.613,-0 -50.006,-22.402 -50.006,-49.996Z" style="fill:#ffa70b;"/></g></g><g><g><path d="M2798.43,3084.42c-0,-27.674 22.469,-50.139 50.133,-50.139c27.69,0 50.134,22.465 50.134,50.139l-0,148.129c-0,27.666 -22.444,50.139 -50.134,50.139c-27.664,-0 -50.133,-22.473 -50.133,-50.139l-0,-148.129Z" style="fill:#ffa70b;"/></g></g><g><g><path d="M2966.64,3027.58c0,-27.669 22.469,-50.134 50.134,-50.134c27.69,0 50.133,22.465 50.133,50.134l0,261.889c0,27.668 -22.443,50.145 -50.133,50.145c-27.665,0 -50.134,-22.477 -50.134,-50.145l0,-261.889Z" style="fill:#ffa70b;"/></g></g><g><g><path d="M3134.89,2732.77c0,-27.664 22.469,-50.142 50.134,-50.142c27.69,0 50.133,22.478 50.133,50.142l0,851.488c0,27.664 -22.443,50.141 -50.133,50.141c-27.665,0 -50.134,-22.477 -50.134,-50.141l0,-851.488Z" style="fill:#ffa70b;"/></g></g><g><g><path d="M3303.14,2351.39c0,-27.636 22.469,-50.119 50.134,-50.119c27.69,-0 50.133,22.483 50.133,50.119l0,1614.3c0,27.693 -22.443,50.176 -50.133,50.176c-27.665,0 -50.134,-22.483 -50.134,-50.176l0,-1614.3Z" style="fill:#ffa70b;"/></g></g><g><g><path d="M3471.39,2535.3c0,-27.667 22.469,-50.13 50.134,-50.13c27.69,-0 50.133,22.463 50.133,50.13l0,1246.4c0,27.667 -22.443,50.175 -50.133,50.175c-27.665,-0 -50.134,-22.508 -50.134,-50.175l0,-1246.4Z" style="fill:#ffa70b;"/></g></g><g><g><path d="M3639.64,2146.58c0,-27.713 22.469,-50.165 50.134,-50.165c27.69,-0 50.133,22.452 50.133,50.165l0,2023.88c0,27.643 -22.443,50.165 -50.133,50.165c-27.665,0 -50.134,-22.522 -50.134,-50.165l0,-2023.88Z" style="fill:#ffa70b;"/></g></g><g><g><path d="M3807.89,2460.44c0,-27.631 22.469,-50.122 50.134,-50.122c27.69,0 50.133,22.491 50.133,50.122l0,1396.25c0,27.68 -22.443,50.171 -50.133,50.171c-27.665,0 -50.134,-22.491 -50.134,-50.171l0,-1396.25Z" style="fill:#ffa70b;"/></g></g><g><g><path d="M3976.14,2734.28c0,-27.672 22.469,-50.142 50.134,-50.142c27.69,-0 50.133,22.47 50.133,50.142l0,848.522c0,27.672 -22.443,50.142 -50.133,50.142c-27.665,-0 -50.134,-22.47 -50.134,-50.142l0,-848.522Z" style="fill:#ffa70b;"/></g></g><g><g><path d="M4144.39,3023.12c0,-27.677 22.469,-50.145 50.134,-50.145c27.69,-0 50.133,22.468 50.133,50.145l0,270.813c0,27.677 -22.443,50.145 -50.133,50.145c-27.665,-0 -50.134,-22.468 -50.134,-50.145l0,-270.813Z" style="fill:#ffa70b;"/></g></g><g><g><text x="511.412px" y="4016.18px" style="font-family:'CourierNewPS-BoldMT', 'Courier New', monospace;font-weight:700;font-size:1041.67px;fill:#fff;stroke:#fff;stroke-width:4.17px;stroke-linecap:butt;stroke-miterlimit:2;">B4SS</text></g></g><g><g><text x="988.961px" y="4199.97px" style="font-family:'CourierNewPSMT', 'Courier New', monospace;font-size:156.25px;fill:#fff;stroke:#fff;stroke-width:4.17px;stroke-linecap:butt;stroke-miterlimit:2;">bayesian analysis for</text><text x="1556.5px" y="4352.14px" style="font-family:'CourierNewPSMT', 'Courier New', monospace;font-size:156.25px;fill:#fff;stroke:#fff;stroke-width:4.17px;stroke-linecap:butt;stroke-miterlimit:2;">speech sciences</text></g></g></svg>