<?xml version="1.0" encoding="UTF-8" standalone="no"?>
<!DOCTYPE svg PUBLIC "-//W3C//DTD SVG 1.1//EN" "http://www.w3.org/Graphics/SVG/1.1/DTD/svg11.dtd">
<svg width="100%" height="100%" viewBox="0 0 1157 1332" version="1.1" xmlns="http://www.w3.org/2000/svg" xmlns:xlink="http://www.w3.org/1999/xlink" xml:space="preserve" xmlns:serif="http://www.serif.com/" style="fill-rule:evenodd;clip-rule:evenodd;stroke-linecap:round;stroke-linejoin:round;stroke-miterlimit:1.5;">
    <g transform="matrix(1,0,0,1,-979.304,-2889.61)">
        <g transform="matrix(1,0,0,1.11662,51.9356,-199.691)">
            <g transform="matrix(1.23644,0,0,0.804263,-893.562,552.457)">
                <path d="M2407.05,3125.2L1940.31,2754.23L1473.57,3125.2L1473.57,3856.95L1940.31,4235.1L2407.05,3856.95L2407.05,3125.2Z" style="fill:white;stroke:black;stroke-width:1.93px;"/>
            </g>
        </g>
        <g transform="matrix(1,0,0,1.11662,51.9356,-199.691)">
            <g transform="matrix(1.07548,0,0,0.699564,-581.252,918.344)">
                <path d="M2407.05,3125.2L1940.31,2754.23L1473.57,3125.2L1473.57,3856.95L1940.31,4235.1L2407.05,3856.95L2407.05,3125.2Z"/>
            </g>
        </g>
        <g transform="matrix(1,0,0,1.11662,51.9356,-199.691)">
            <g transform="matrix(-0.614192,0,0,0.0709852,2460.64,3197.19)">
                <path d="M2316.62,3498.34C2316.62,3414.79 2307.87,3346.96 2297.08,3346.96L2296.97,3346.96C2286.19,3346.96 2277.44,3414.79 2277.44,3498.34C2277.44,3581.89 2286.19,3649.72 2296.97,3649.72L2297.08,3649.72C2307.87,3649.72 2316.62,3581.89 2316.62,3498.34Z" style="fill:rgb(137,112,255);"/>
            </g>
        </g>
        <g transform="matrix(1,0,0,1.11662,51.9356,-199.691)">
            <g transform="matrix(-0.614192,0,0,0.0709852,2497.67,3197.19)">
                <path d="M2316.62,3498.34C2316.62,3414.79 2307.87,3346.96 2297.08,3346.96L2296.97,3346.96C2286.19,3346.96 2277.44,3414.79 2277.44,3498.34C2277.44,3581.89 2286.19,3649.72 2296.97,3649.72L2297.08,3649.72C2307.87,3649.72 2316.62,3581.89 2316.62,3498.34Z" style="fill:rgb(137,112,255);"/>
            </g>
        </g>
        <g transform="matrix(1,0,0,1.11662,51.9356,-199.691)">
            <g transform="matrix(-0.614192,0,0,0.0709852,2942.09,3197.19)">
                <path d="M2316.62,3498.34C2316.62,3414.79 2307.87,3346.96 2297.08,3346.96L2296.97,3346.96C2286.19,3346.96 2277.44,3414.79 2277.44,3498.34C2277.44,3581.89 2286.19,3649.72 2296.97,3649.72L2297.08,3649.72C2307.87,3649.72 2316.62,3581.89 2316.62,3498.34Z" style="fill:rgb(137,112,255);"/>
            </g>
        </g>
        <g transform="matrix(1,0,0,1.11662,51.9356,-199.691)">
            <g transform="matrix(-0.614192,0,0,0.169983,2534.71,2835.88)">
                <path d="M2316.62,3410.36C2316.62,3375.37 2307.84,3346.96 2297.03,3346.96C2286.21,3346.96 2277.44,3375.37 2277.44,3410.36L2277.44,3586.32C2277.44,3621.31 2286.21,3649.72 2297.03,3649.72C2307.84,3649.72 2316.62,3621.31 2316.62,3586.32L2316.62,3410.36Z" style="fill:rgb(137,112,255);"/>
            </g>
        </g>
        <g transform="matrix(1,0,0,1.11662,51.9356,-199.691)">
            <g transform="matrix(-0.614192,0,0,0.258934,2571.74,2511.23)">
                <path d="M2316.62,3388.58C2316.62,3365.61 2307.84,3346.96 2297.03,3346.96C2286.21,3346.96 2277.44,3365.61 2277.44,3388.58L2277.44,3608.1C2277.44,3631.07 2286.21,3649.72 2297.03,3649.72C2307.84,3649.72 2316.62,3631.07 2316.62,3608.1L2316.62,3388.58Z" style="fill:rgb(137,112,255);"/>
            </g>
        </g>
        <g transform="matrix(1,0,0,1.11662,51.9356,-199.691)">
            <g transform="matrix(-0.614192,0,0,0.671139,2608.78,1006.8)">
                <path d="M2316.62,3363.02C2316.62,3354.16 2307.84,3346.96 2297.03,3346.96C2286.21,3346.96 2277.44,3354.16 2277.44,3363.02L2277.44,3633.66C2277.44,3642.52 2286.21,3649.72 2297.03,3649.72C2307.84,3649.72 2316.62,3642.52 2316.62,3633.66L2316.62,3363.02Z" style="fill:rgb(137,112,255);"/>
            </g>
        </g>
        <g transform="matrix(1,0,0,1.11662,51.9356,-199.691)">
            <g transform="matrix(-0.614192,0,0,1.22703,2645.81,-1022.06)">
                <path d="M2316.62,3355.74C2316.62,3350.9 2307.84,3346.96 2297.03,3346.96C2286.21,3346.96 2277.44,3350.9 2277.44,3355.74L2277.44,3640.93C2277.44,3645.78 2286.21,3649.72 2297.03,3649.72C2307.84,3649.72 2316.62,3645.78 2316.62,3640.93L2316.62,3355.74Z" style="fill:rgb(137,112,255);"/>
            </g>
        </g>
        <g transform="matrix(1,0,0,1.11662,51.9356,-199.691)">
            <g transform="matrix(-0.614192,0,0,1.514,2682.85,-2069.41)">
                <path d="M2316.62,3354.08C2316.62,3350.15 2307.84,3346.96 2297.03,3346.96C2286.21,3346.96 2277.44,3350.15 2277.44,3354.08L2277.44,3642.6C2277.44,3646.53 2286.21,3649.72 2297.03,3649.72C2307.84,3649.72 2316.62,3646.53 2316.62,3642.6L2316.62,3354.08Z" style="fill:rgb(137,112,255);"/>
            </g>
        </g>
        <g transform="matrix(1,0,0,1.11662,51.9356,-199.691)">
            <g transform="matrix(-0.614192,0,0,1.514,2719.88,-2069.41)">
                <path d="M2316.62,3354.08C2316.62,3350.15 2307.84,3346.96 2297.03,3346.96C2286.21,3346.96 2277.44,3350.15 2277.44,3354.08L2277.44,3642.6C2277.44,3646.53 2286.21,3649.72 2297.03,3649.72C2307.84,3649.72 2316.62,3646.53 2316.62,3642.6L2316.62,3354.08Z" style="fill:rgb(137,112,255);"/>
            </g>
        </g>
        <g transform="matrix(1,0,0,1.11662,51.9356,-199.691)">
            <g transform="matrix(-0.614192,0,0,1.22703,2756.92,-1022.06)">
                <path d="M2316.62,3355.74C2316.62,3350.9 2307.84,3346.96 2297.03,3346.96C2286.21,3346.96 2277.44,3350.9 2277.44,3355.74L2277.44,3640.93C2277.44,3645.78 2286.21,3649.72 2297.03,3649.72C2307.84,3649.72 2316.62,3645.78 2316.62,3640.93L2316.62,3355.74Z" style="fill:rgb(137,112,255);"/>
            </g>
        </g>
        <g transform="matrix(1,0,0,1.11662,51.9356,-199.691)">
            <g transform="matrix(-0.614192,0,0,0.668405,2793.95,1016.78)">
                <path d="M2316.62,3363.08C2316.62,3354.18 2307.84,3346.96 2297.03,3346.96C2286.21,3346.96 2277.44,3354.18 2277.44,3363.08L2277.44,3633.59C2277.44,3642.49 2286.21,3649.72 2297.03,3649.72C2307.84,3649.72 2316.62,3642.49 2316.62,3633.59L2316.62,3363.08Z" style="fill:rgb(137,112,255);"/>
            </g>
        </g>
        <g transform="matrix(1,0,0,1.11662,51.9356,-199.691)">
            <g transform="matrix(-0.614192,0,0,0.245548,2830.99,2560.09)">
                <path d="M2316.62,3390.85C2316.62,3366.63 2307.84,3346.96 2297.03,3346.96C2286.21,3346.96 2277.44,3366.63 2277.44,3390.85L2277.44,3605.83C2277.44,3630.05 2286.21,3649.72 2297.03,3649.72C2307.84,3649.72 2316.62,3630.05 2316.62,3605.83L2316.62,3390.85Z" style="fill:rgb(137,112,255);"/>
            </g>
        </g>
        <g transform="matrix(1,0,0,1.11662,51.9356,-199.691)">
            <g transform="matrix(-0.614192,0,0,0.17066,2905.06,2833.41)">
                <path d="M2316.62,3410.11C2316.62,3375.26 2307.84,3346.96 2297.03,3346.96C2286.21,3346.96 2277.44,3375.26 2277.44,3410.11L2277.44,3586.57C2277.44,3621.42 2286.21,3649.72 2297.03,3649.72C2307.84,3649.72 2316.62,3621.42 2316.62,3586.57L2316.62,3410.11Z" style="fill:rgb(137,112,255);"/>
            </g>
        </g>
        <g transform="matrix(1,0,0,1.11662,51.9356,-199.691)">
            <g transform="matrix(-0.614192,0,0,0.17066,2868.02,2833.41)">
                <path d="M2316.62,3410.11C2316.62,3375.26 2307.84,3346.96 2297.03,3346.96C2286.21,3346.96 2277.44,3375.26 2277.44,3410.11L2277.44,3586.57C2277.44,3621.42 2286.21,3649.72 2297.03,3649.72C2307.84,3649.72 2316.62,3621.42 2316.62,3586.57L2316.62,3410.11Z" style="fill:rgb(137,112,255);"/>
            </g>
        </g>
        <g transform="matrix(1,0,0,1.11662,51.9356,-199.691)">
            <g transform="matrix(-0.614192,0,0,0.0709852,2981.47,3197.19)">
                <path d="M2316.62,3498.34C2316.62,3414.79 2307.87,3346.96 2297.08,3346.96L2296.97,3346.96C2286.19,3346.96 2277.44,3414.79 2277.44,3498.34C2277.44,3581.89 2286.19,3649.72 2296.97,3649.72L2297.08,3649.72C2307.87,3649.72 2316.62,3581.89 2316.62,3498.34Z" style="fill:rgb(255,167,11);"/>
            </g>
        </g>
        <g transform="matrix(1,0,0,1.11662,51.9356,-199.691)">
            <g transform="matrix(-0.614192,0,0,0.0709852,3385.26,3197.19)">
                <path d="M2316.62,3498.34C2316.62,3414.79 2307.87,3346.96 2297.08,3346.96L2296.97,3346.96C2286.19,3346.96 2277.44,3414.79 2277.44,3498.34C2277.44,3581.89 2286.19,3649.72 2296.97,3649.72L2297.08,3649.72C2307.87,3649.72 2316.62,3581.89 2316.62,3498.34Z" style="fill:rgb(255,167,11);"/>
            </g>
        </g>
        <g transform="matrix(1,0,0,1.11662,51.9356,-199.691)">
            <g transform="matrix(-0.614192,0,0,0.176348,3021.85,2828.59)">
                <path d="M2316.62,3408.07C2316.62,3374.34 2307.84,3346.96 2297.03,3346.96C2286.21,3346.96 2277.44,3374.34 2277.44,3408.07L2277.44,3588.61C2277.44,3622.33 2286.21,3649.72 2297.03,3649.72C2307.84,3649.72 2316.62,3622.33 2316.62,3588.61L2316.62,3408.07Z" style="fill:rgb(255,167,11);"/>
            </g>
        </g>
        <g transform="matrix(1,0,0,1.11662,51.9356,-199.691)">
            <g transform="matrix(-0.614192,0,0,0.257109,3062.22,2546.07)">
                <path d="M2316.62,3388.87C2316.62,3365.74 2307.84,3346.96 2297.03,3346.96C2286.21,3346.96 2277.44,3365.74 2277.44,3388.87L2277.44,3607.8C2277.44,3630.93 2286.21,3649.72 2297.03,3649.72C2307.84,3649.72 2316.62,3630.93 2316.62,3607.8L2316.62,3388.87Z" style="fill:rgb(255,167,11);"/>
            </g>
        </g>
        <g transform="matrix(1,0,0,1.11662,51.9356,-199.691)">
            <g transform="matrix(-0.614192,0,0,0.675678,3102.6,1081.77)">
                <path d="M2316.62,3362.91C2316.62,3354.11 2307.84,3346.96 2297.03,3346.96C2286.21,3346.96 2277.44,3354.11 2277.44,3362.91L2277.44,3633.77C2277.44,3642.57 2286.21,3649.72 2297.03,3649.72C2307.84,3649.72 2316.62,3642.57 2316.62,3633.77L2316.62,3362.91Z" style="fill:rgb(255,167,11);"/>
            </g>
        </g>
        <g transform="matrix(1,0,0,1.11662,51.9356,-199.691)">
            <g transform="matrix(-0.614192,0,0,1.21722,3142.98,-812.715)">
                <path d="M2316.62,3355.81C2316.62,3350.93 2307.84,3346.96 2297.03,3346.96C2286.21,3346.96 2277.44,3350.93 2277.44,3355.81L2277.44,3640.86C2277.44,3645.75 2286.21,3649.72 2297.03,3649.72C2307.84,3649.72 2316.62,3645.75 2316.62,3640.86L2316.62,3355.81Z" style="fill:rgb(255,167,11);"/>
            </g>
        </g>
        <g transform="matrix(1,0,0,1.11662,51.9356,-199.691)">
            <g transform="matrix(-0.614192,0,0,0.956049,3183.36,100.939)">
                <path d="M2316.62,3358.23C2316.62,3352.01 2307.84,3346.96 2297.03,3346.96C2286.21,3346.96 2277.44,3352.01 2277.44,3358.23L2277.44,3638.44C2277.44,3644.66 2286.21,3649.72 2297.03,3649.72C2307.84,3649.72 2316.62,3644.66 2316.62,3638.44L2316.62,3358.23Z" style="fill:rgb(255,167,11);"/>
            </g>
        </g>
        <g transform="matrix(1,0,0,1.11662,51.9356,-199.691)">
            <g transform="matrix(-0.614192,0,0,1.50801,3223.74,-1830.01)">
                <path d="M2316.62,3354.11C2316.62,3350.16 2307.84,3346.96 2297.03,3346.96C2286.21,3346.96 2277.44,3350.16 2277.44,3354.11L2277.44,3642.57C2277.44,3646.51 2286.21,3649.72 2297.03,3649.72C2307.84,3649.72 2316.62,3646.51 2316.62,3642.57L2316.62,3354.11Z" style="fill:rgb(255,167,11);"/>
            </g>
        </g>
        <g transform="matrix(1,0,0,1.11662,51.9356,-199.691)">
            <g transform="matrix(-0.614192,0,0,1.06242,3264.12,-271.168)">
                <path d="M2316.62,3357.1C2316.62,3351.51 2307.84,3346.96 2297.03,3346.96C2286.21,3346.96 2277.44,3351.51 2277.44,3357.1L2277.44,3639.57C2277.44,3645.17 2286.21,3649.72 2297.03,3649.72C2307.84,3649.72 2316.62,3645.17 2316.62,3639.57L2316.62,3357.1Z" style="fill:rgb(255,167,11);"/>
            </g>
        </g>
        <g transform="matrix(1,0,0,1.11662,51.9356,-199.691)">
            <g transform="matrix(-0.614192,0,0,0.673573,3304.5,1089.14)">
                <path d="M2316.62,3362.96C2316.62,3354.13 2307.84,3346.96 2297.03,3346.96C2286.21,3346.96 2277.44,3354.13 2277.44,3362.96L2277.44,3633.72C2277.44,3642.55 2286.21,3649.72 2297.03,3649.72C2307.84,3649.72 2316.62,3642.55 2316.62,3633.72L2316.62,3362.96Z" style="fill:rgb(255,167,11);"/>
            </g>
        </g>
        <g transform="matrix(1,0,0,1.11662,51.9356,-199.691)">
            <g transform="matrix(-0.614192,0,0,0.263452,3344.88,2523.88)">
                <path d="M2316.62,3387.87C2316.62,3365.29 2307.84,3346.96 2297.03,3346.96C2286.21,3346.96 2277.44,3365.29 2277.44,3387.87L2277.44,3608.81C2277.44,3631.39 2286.21,3649.72 2297.03,3649.72C2307.84,3649.72 2316.62,3631.39 2316.62,3608.81L2316.62,3387.87Z" style="fill:rgb(255,167,11);"/>
            </g>
        </g>
        <g transform="matrix(1,0,0,1.11662,51.9356,-199.691)">
            <g transform="matrix(1,0,0,0.895559,152.591,130.637)">
                <text x="897.524px" y="3907.31px" style="font-family:'CourierNewPS-BoldMT', 'Courier New', monospace;font-weight:700;font-size:250px;fill:white;stroke:white;stroke-width:1px;stroke-linecap:butt;stroke-miterlimit:2;">B4SS</text>
            </g>
        </g>
        <g transform="matrix(1,0,0,1.11662,51.9356,-199.691)">
            <g transform="matrix(1,0,0,0.895559,427.072,-12.7785)">
                <text x="733.91px" y="4111.56px" style="font-family:'CourierNewPSMT', 'Courier New', monospace;font-size:37.5px;fill:white;stroke:white;stroke-width:1px;stroke-linecap:butt;stroke-miterlimit:2;">bayesian analysis for</text>
                <text x="823.924px" y="4149.06px" style="font-family:'CourierNewPSMT', 'Courier New', monospace;font-size:37.5px;fill:white;stroke:white;stroke-width:1px;stroke-linecap:butt;stroke-miterlimit:2;">speech scientists</text>
            </g>
        </g>
    </g>
</svg>
